<svg width="21" height="20" viewBox="0 0 21 20" fill="none" xmlns="http://www.w3.org/2000/svg">
<path d="M13.8333 0.833496H7.16668C6.01668 0.833496 5.08334 1.76683 5.08334 2.91683V17.0835C5.08334 18.2335 6.01668 19.1668 7.16668 19.1668H13.8333C14.9833 19.1668 15.9167 18.2335 15.9167 17.0835V2.91683C15.9167 1.76683 14.9833 0.833496 13.8333 0.833496ZM10.5 18.3335C9.80834 18.3335 9.25001 17.7752 9.25001 17.0835C9.25001 16.3918 9.80834 15.8335 10.5 15.8335C11.1917 15.8335 11.75 16.3918 11.75 17.0835C11.75 17.7752 11.1917 18.3335 10.5 18.3335ZM14.25 15.0002H6.75001V3.3335H14.25V15.0002Z" fill="#6938EF"/>
</svg>
