<svg width="790" height="374" viewBox="0 0 790 374" fill="none" xmlns="http://www.w3.org/2000/svg">
<rect width="790" height="374" fill="white"/>
<rect x="0.5" y="0.5" width="789" height="373" stroke="#21334F" stroke-opacity="0.1"/>
<path d="M25.9616 93.1193C25.3991 93.1193 24.8977 93.0227 24.4574 92.8295C24.0199 92.6364 23.6719 92.3679 23.4134 92.0241C23.1577 91.6776 23.0185 91.2756 22.9957 90.8182H24.0696C24.0923 91.0994 24.1889 91.3423 24.3594 91.5469C24.5298 91.7486 24.7528 91.9048 25.0284 92.0156C25.304 92.1264 25.6094 92.1818 25.9446 92.1818C26.3196 92.1818 26.652 92.1165 26.9418 91.9858C27.2315 91.8551 27.4588 91.6733 27.6236 91.4403C27.7884 91.2074 27.8707 90.9375 27.8707 90.6307C27.8707 90.3097 27.7912 90.027 27.6321 89.7827C27.473 89.5355 27.2401 89.3423 26.9332 89.2031C26.6264 89.0639 26.2514 88.9943 25.8082 88.9943H25.1094V88.0568H25.8082C26.1548 88.0568 26.4588 87.9943 26.7202 87.8693C26.9844 87.7443 27.1903 87.5682 27.3381 87.3409C27.4886 87.1136 27.5639 86.8466 27.5639 86.5398C27.5639 86.2443 27.4986 85.9872 27.3679 85.7685C27.2372 85.5497 27.0526 85.3793 26.8139 85.2571C26.5781 85.1349 26.2997 85.0739 25.9787 85.0739C25.6776 85.0739 25.3935 85.1293 25.1264 85.2401C24.8622 85.348 24.6463 85.5057 24.4787 85.7131C24.3111 85.9176 24.2202 86.1648 24.206 86.4545H23.1832C23.2003 85.9972 23.3381 85.5966 23.5966 85.2528C23.8551 84.9062 24.1932 84.6364 24.6108 84.4432C25.0313 84.25 25.4929 84.1534 25.9957 84.1534C26.5355 84.1534 26.9986 84.2628 27.3849 84.4815C27.7713 84.6974 28.0682 84.983 28.2756 85.3381C28.483 85.6932 28.5866 86.0767 28.5866 86.4886C28.5866 86.9801 28.4574 87.3991 28.1989 87.7457C27.9432 88.0923 27.5952 88.3324 27.1548 88.4659V88.5341C27.706 88.625 28.1364 88.8594 28.446 89.2372C28.7557 89.6122 28.9105 90.0767 28.9105 90.6307C28.9105 91.1051 28.7813 91.5312 28.5227 91.9091C28.267 92.2841 27.9176 92.5795 27.4744 92.7955C27.0313 93.0114 26.527 93.1193 25.9616 93.1193ZM33.85 93.1193C33.208 93.1193 32.6611 92.9446 32.2094 92.5952C31.7577 92.2429 31.4125 91.733 31.1739 91.0653C30.9352 90.3949 30.8159 89.5852 30.8159 88.6364C30.8159 87.6932 30.9352 86.8878 31.1739 86.2202C31.4153 85.5497 31.7619 85.0384 32.2136 84.6861C32.6682 84.331 33.2136 84.1534 33.85 84.1534C34.4864 84.1534 35.0304 84.331 35.4821 84.6861C35.9366 85.0384 36.2832 85.5497 36.5219 86.2202C36.7634 86.8878 36.8841 87.6932 36.8841 88.6364C36.8841 89.5852 36.7648 90.3949 36.5261 91.0653C36.2875 91.733 35.9423 92.2429 35.4906 92.5952C35.0389 92.9446 34.492 93.1193 33.85 93.1193ZM33.85 92.1818C34.4864 92.1818 34.9807 91.875 35.333 91.2614C35.6852 90.6477 35.8614 89.7727 35.8614 88.6364C35.8614 87.8807 35.7804 87.2372 35.6185 86.706C35.4594 86.1747 35.2293 85.7699 34.9281 85.4915C34.6298 85.2131 34.2705 85.0739 33.85 85.0739C33.2193 85.0739 32.7264 85.3849 32.3713 86.0071C32.0162 86.6264 31.8386 87.5028 31.8386 88.6364C31.8386 89.392 31.9182 90.0341 32.0773 90.5625C32.2364 91.0909 32.4651 91.4929 32.7634 91.7685C33.0645 92.044 33.4267 92.1818 33.85 92.1818ZM41.7 93.1193C41.058 93.1193 40.5111 92.9446 40.0594 92.5952C39.6077 92.2429 39.2625 91.733 39.0239 91.0653C38.7852 90.3949 38.6659 89.5852 38.6659 88.6364C38.6659 87.6932 38.7852 86.8878 39.0239 86.2202C39.2653 85.5497 39.6119 85.0384 40.0636 84.6861C40.5182 84.331 41.0636 84.1534 41.7 84.1534C42.3364 84.1534 42.8804 84.331 43.3321 84.6861C43.7866 85.0384 44.1332 85.5497 44.3719 86.2202C44.6134 86.8878 44.7341 87.6932 44.7341 88.6364C44.7341 89.5852 44.6148 90.3949 44.3761 91.0653C44.1375 91.733 43.7923 92.2429 43.3406 92.5952C42.8889 92.9446 42.342 93.1193 41.7 93.1193ZM41.7 92.1818C42.3364 92.1818 42.8307 91.875 43.183 91.2614C43.5352 90.6477 43.7114 89.7727 43.7114 88.6364C43.7114 87.8807 43.6304 87.2372 43.4685 86.706C43.3094 86.1747 43.0793 85.7699 42.7781 85.4915C42.4798 85.2131 42.1205 85.0739 41.7 85.0739C41.0693 85.0739 40.5764 85.3849 40.2213 86.0071C39.8662 86.6264 39.6886 87.5028 39.6886 88.6364C39.6886 89.392 39.7682 90.0341 39.9273 90.5625C40.0864 91.0909 40.3151 91.4929 40.6134 91.7685C40.9145 92.044 41.2767 92.1818 41.7 92.1818ZM49.55 93.1193C48.908 93.1193 48.3611 92.9446 47.9094 92.5952C47.4577 92.2429 47.1125 91.733 46.8739 91.0653C46.6352 90.3949 46.5159 89.5852 46.5159 88.6364C46.5159 87.6932 46.6352 86.8878 46.8739 86.2202C47.1153 85.5497 47.4619 85.0384 47.9136 84.6861C48.3682 84.331 48.9136 84.1534 49.55 84.1534C50.1864 84.1534 50.7304 84.331 51.1821 84.6861C51.6366 85.0384 51.9832 85.5497 52.2219 86.2202C52.4634 86.8878 52.5841 87.6932 52.5841 88.6364C52.5841 89.5852 52.4648 90.3949 52.2261 91.0653C51.9875 91.733 51.6423 92.2429 51.1906 92.5952C50.7389 92.9446 50.192 93.1193 49.55 93.1193ZM49.55 92.1818C50.1864 92.1818 50.6807 91.875 51.033 91.2614C51.3852 90.6477 51.5614 89.7727 51.5614 88.6364C51.5614 87.8807 51.4804 87.2372 51.3185 86.706C51.1594 86.1747 50.9293 85.7699 50.6281 85.4915C50.3298 85.2131 49.9705 85.0739 49.55 85.0739C48.9193 85.0739 48.4264 85.3849 48.0713 86.0071C47.7162 86.6264 47.5386 87.5028 47.5386 88.6364C47.5386 89.392 47.6182 90.0341 47.7773 90.5625C47.9364 91.0909 48.1651 91.4929 48.4634 91.7685C48.7645 92.044 49.1267 92.1818 49.55 92.1818ZM57.4 93.1193C56.758 93.1193 56.2111 92.9446 55.7594 92.5952C55.3077 92.2429 54.9625 91.733 54.7239 91.0653C54.4852 90.3949 54.3659 89.5852 54.3659 88.6364C54.3659 87.6932 54.4852 86.8878 54.7239 86.2202C54.9653 85.5497 55.3119 85.0384 55.7636 84.6861C56.2182 84.331 56.7636 84.1534 57.4 84.1534C58.0364 84.1534 58.5804 84.331 59.0321 84.6861C59.4866 85.0384 59.8332 85.5497 60.0719 86.2202C60.3134 86.8878 60.4341 87.6932 60.4341 88.6364C60.4341 89.5852 60.3148 90.3949 60.0761 91.0653C59.8375 91.733 59.4923 92.2429 59.0406 92.5952C58.5889 92.9446 58.042 93.1193 57.4 93.1193ZM57.4 92.1818C58.0364 92.1818 58.5307 91.875 58.883 91.2614C59.2352 90.6477 59.4114 89.7727 59.4114 88.6364C59.4114 87.8807 59.3304 87.2372 59.1685 86.706C59.0094 86.1747 58.7793 85.7699 58.4781 85.4915C58.1798 85.2131 57.8205 85.0739 57.4 85.0739C56.7693 85.0739 56.2764 85.3849 55.9213 86.0071C55.5662 86.6264 55.3886 87.5028 55.3886 88.6364C55.3886 89.392 55.4682 90.0341 55.6273 90.5625C55.7864 91.0909 56.0151 91.4929 56.3134 91.7685C56.6145 92.044 56.9767 92.1818 57.4 92.1818ZM65.25 93.1193C64.608 93.1193 64.0611 92.9446 63.6094 92.5952C63.1577 92.2429 62.8125 91.733 62.5739 91.0653C62.3352 90.3949 62.2159 89.5852 62.2159 88.6364C62.2159 87.6932 62.3352 86.8878 62.5739 86.2202C62.8153 85.5497 63.1619 85.0384 63.6136 84.6861C64.0682 84.331 64.6136 84.1534 65.25 84.1534C65.8864 84.1534 66.4304 84.331 66.8821 84.6861C67.3366 85.0384 67.6832 85.5497 67.9219 86.2202C68.1634 86.8878 68.2841 87.6932 68.2841 88.6364C68.2841 89.5852 68.1648 90.3949 67.9261 91.0653C67.6875 91.733 67.3423 92.2429 66.8906 92.5952C66.4389 92.9446 65.892 93.1193 65.25 93.1193ZM65.25 92.1818C65.8864 92.1818 66.3807 91.875 66.733 91.2614C67.0852 90.6477 67.2614 89.7727 67.2614 88.6364C67.2614 87.8807 67.1804 87.2372 67.0185 86.706C66.8594 86.1747 66.6293 85.7699 66.3281 85.4915C66.0298 85.2131 65.6705 85.0739 65.25 85.0739C64.6193 85.0739 64.1264 85.3849 63.7713 86.0071C63.4162 86.6264 63.2386 87.5028 63.2386 88.6364C63.2386 89.392 63.3182 90.0341 63.4773 90.5625C63.6364 91.0909 63.8651 91.4929 64.1634 91.7685C64.4645 92.044 64.8267 92.1818 65.25 92.1818Z" fill="#273B4A" fill-opacity="0.7"/>
<path d="M23.587 133V132.233L26.4677 129.08C26.8058 128.71 27.0842 128.389 27.3029 128.116C27.5217 127.841 27.6836 127.582 27.7887 127.341C27.8967 127.097 27.9506 126.841 27.9506 126.574C27.9506 126.267 27.8768 126.001 27.729 125.777C27.5842 125.553 27.3853 125.379 27.1325 125.257C26.8796 125.135 26.5955 125.074 26.2802 125.074C25.945 125.074 25.6523 125.143 25.4023 125.283C25.1552 125.419 24.9634 125.611 24.8271 125.858C24.6935 126.105 24.6268 126.395 24.6268 126.727H23.6211C23.6211 126.216 23.739 125.767 23.9748 125.381C24.2106 124.994 24.5316 124.693 24.9379 124.477C25.3469 124.261 25.8058 124.153 26.3143 124.153C26.8256 124.153 27.2788 124.261 27.6737 124.477C28.0685 124.693 28.3782 124.984 28.6026 125.351C28.8271 125.717 28.9393 126.125 28.9393 126.574C28.9393 126.895 28.881 127.209 28.7646 127.516C28.6509 127.82 28.4521 128.159 28.168 128.534C27.8867 128.906 27.4961 129.361 26.9961 129.898L25.0359 131.994V132.062H29.0927V133H23.587ZM33.9299 133.119C33.4299 133.119 32.9796 133.02 32.579 132.821C32.1785 132.622 31.8575 132.349 31.616 132.003C31.3745 131.656 31.2424 131.261 31.2197 130.818H32.2424C32.2822 131.213 32.4612 131.54 32.7793 131.798C33.1004 132.054 33.4839 132.182 33.9299 132.182C34.2879 132.182 34.606 132.098 34.8844 131.93C35.1657 131.763 35.3859 131.533 35.545 131.24C35.7069 130.945 35.7879 130.611 35.7879 130.239C35.7879 129.858 35.704 129.518 35.5364 129.22C35.3717 128.919 35.1444 128.682 34.8546 128.509C34.5648 128.335 34.2339 128.247 33.8617 128.244C33.5947 128.241 33.3205 128.283 33.0393 128.368C32.758 128.45 32.5265 128.557 32.3447 128.688L31.356 128.568L31.8844 124.273H36.4185V125.21H32.7708L32.464 127.784H32.5151C32.6941 127.642 32.9185 127.524 33.1884 127.43C33.4583 127.337 33.7396 127.29 34.0322 127.29C34.5663 127.29 35.0421 127.418 35.4597 127.673C35.8802 127.926 36.2097 128.273 36.4484 128.713C36.6898 129.153 36.8106 129.656 36.8106 130.222C36.8106 130.778 36.6856 131.276 36.4356 131.713C36.1884 132.148 35.8475 132.491 35.4129 132.744C34.9782 132.994 34.4839 133.119 33.9299 133.119ZM41.7 133.119C41.058 133.119 40.5111 132.945 40.0594 132.595C39.6077 132.243 39.2625 131.733 39.0239 131.065C38.7852 130.395 38.6659 129.585 38.6659 128.636C38.6659 127.693 38.7852 126.888 39.0239 126.22C39.2653 125.55 39.6119 125.038 40.0636 124.686C40.5182 124.331 41.0636 124.153 41.7 124.153C42.3364 124.153 42.8804 124.331 43.3321 124.686C43.7866 125.038 44.1332 125.55 44.3719 126.22C44.6134 126.888 44.7341 127.693 44.7341 128.636C44.7341 129.585 44.6148 130.395 44.3761 131.065C44.1375 131.733 43.7923 132.243 43.3406 132.595C42.8889 132.945 42.342 133.119 41.7 133.119ZM41.7 132.182C42.3364 132.182 42.8307 131.875 43.183 131.261C43.5352 130.648 43.7114 129.773 43.7114 128.636C43.7114 127.881 43.6304 127.237 43.4685 126.706C43.3094 126.175 43.0793 125.77 42.7781 125.491C42.4798 125.213 42.1205 125.074 41.7 125.074C41.0693 125.074 40.5764 125.385 40.2213 126.007C39.8662 126.626 39.6886 127.503 39.6886 128.636C39.6886 129.392 39.7682 130.034 39.9273 130.562C40.0864 131.091 40.3151 131.493 40.6134 131.768C40.9145 132.044 41.2767 132.182 41.7 132.182ZM49.55 133.119C48.908 133.119 48.3611 132.945 47.9094 132.595C47.4577 132.243 47.1125 131.733 46.8739 131.065C46.6352 130.395 46.5159 129.585 46.5159 128.636C46.5159 127.693 46.6352 126.888 46.8739 126.22C47.1153 125.55 47.4619 125.038 47.9136 124.686C48.3682 124.331 48.9136 124.153 49.55 124.153C50.1864 124.153 50.7304 124.331 51.1821 124.686C51.6366 125.038 51.9832 125.55 52.2219 126.22C52.4634 126.888 52.5841 127.693 52.5841 128.636C52.5841 129.585 52.4648 130.395 52.2261 131.065C51.9875 131.733 51.6423 132.243 51.1906 132.595C50.7389 132.945 50.192 133.119 49.55 133.119ZM49.55 132.182C50.1864 132.182 50.6807 131.875 51.033 131.261C51.3852 130.648 51.5614 129.773 51.5614 128.636C51.5614 127.881 51.4804 127.237 51.3185 126.706C51.1594 126.175 50.9293 125.77 50.6281 125.491C50.3298 125.213 49.9705 125.074 49.55 125.074C48.9193 125.074 48.4264 125.385 48.0713 126.007C47.7162 126.626 47.5386 127.503 47.5386 128.636C47.5386 129.392 47.6182 130.034 47.7773 130.562C47.9364 131.091 48.1651 131.493 48.4634 131.768C48.7645 132.044 49.1267 132.182 49.55 132.182ZM57.4 133.119C56.758 133.119 56.2111 132.945 55.7594 132.595C55.3077 132.243 54.9625 131.733 54.7239 131.065C54.4852 130.395 54.3659 129.585 54.3659 128.636C54.3659 127.693 54.4852 126.888 54.7239 126.22C54.9653 125.55 55.3119 125.038 55.7636 124.686C56.2182 124.331 56.7636 124.153 57.4 124.153C58.0364 124.153 58.5804 124.331 59.0321 124.686C59.4866 125.038 59.8332 125.55 60.0719 126.22C60.3134 126.888 60.4341 127.693 60.4341 128.636C60.4341 129.585 60.3148 130.395 60.0761 131.065C59.8375 131.733 59.4923 132.243 59.0406 132.595C58.5889 132.945 58.042 133.119 57.4 133.119ZM57.4 132.182C58.0364 132.182 58.5307 131.875 58.883 131.261C59.2352 130.648 59.4114 129.773 59.4114 128.636C59.4114 127.881 59.3304 127.237 59.1685 126.706C59.0094 126.175 58.7793 125.77 58.4781 125.491C58.1798 125.213 57.8205 125.074 57.4 125.074C56.7693 125.074 56.2764 125.385 55.9213 126.007C55.5662 126.626 55.3886 127.503 55.3886 128.636C55.3886 129.392 55.4682 130.034 55.6273 130.562C55.7864 131.091 56.0151 131.493 56.3134 131.768C56.6145 132.044 56.9767 132.182 57.4 132.182ZM65.25 133.119C64.608 133.119 64.0611 132.945 63.6094 132.595C63.1577 132.243 62.8125 131.733 62.5739 131.065C62.3352 130.395 62.2159 129.585 62.2159 128.636C62.2159 127.693 62.3352 126.888 62.5739 126.22C62.8153 125.55 63.1619 125.038 63.6136 124.686C64.0682 124.331 64.6136 124.153 65.25 124.153C65.8864 124.153 66.4304 124.331 66.8821 124.686C67.3366 125.038 67.6832 125.55 67.9219 126.22C68.1634 126.888 68.2841 127.693 68.2841 128.636C68.2841 129.585 68.1648 130.395 67.9261 131.065C67.6875 131.733 67.3423 132.243 66.8906 132.595C66.4389 132.945 65.892 133.119 65.25 133.119ZM65.25 132.182C65.8864 132.182 66.3807 131.875 66.733 131.261C67.0852 130.648 67.2614 129.773 67.2614 128.636C67.2614 127.881 67.1804 127.237 67.0185 126.706C66.8594 126.175 66.6293 125.77 66.3281 125.491C66.0298 125.213 65.6705 125.074 65.25 125.074C64.6193 125.074 64.1264 125.385 63.7713 126.007C63.4162 126.626 63.2386 127.503 63.2386 128.636C63.2386 129.392 63.3182 130.034 63.4773 130.562C63.6364 131.091 63.8651 131.493 64.1634 131.768C64.4645 132.044 64.8267 132.182 65.25 132.182Z" fill="#273B4A" fill-opacity="0.7"/>
<path d="M23.3878 173V172.233L26.2685 169.08C26.6065 168.71 26.8849 168.389 27.1037 168.116C27.3224 167.841 27.4844 167.582 27.5895 167.341C27.6974 167.097 27.7514 166.841 27.7514 166.574C27.7514 166.267 27.6776 166.001 27.5298 165.777C27.3849 165.553 27.1861 165.379 26.9332 165.257C26.6804 165.135 26.3963 165.074 26.081 165.074C25.7457 165.074 25.4531 165.143 25.2031 165.283C24.956 165.419 24.7642 165.611 24.6278 165.858C24.4943 166.105 24.4276 166.395 24.4276 166.727H23.4219C23.4219 166.216 23.5398 165.767 23.7756 165.381C24.0114 164.994 24.3324 164.693 24.7386 164.477C25.1477 164.261 25.6065 164.153 26.1151 164.153C26.6264 164.153 27.0795 164.261 27.4744 164.477C27.8693 164.693 28.179 164.984 28.4034 165.351C28.6278 165.717 28.7401 166.125 28.7401 166.574C28.7401 166.895 28.6818 167.209 28.5653 167.516C28.4517 167.82 28.2528 168.159 27.9688 168.534C27.6875 168.906 27.2969 169.361 26.7969 169.898L24.8366 171.994V172.062H28.8935V173H23.3878ZM33.85 173.119C33.208 173.119 32.6611 172.945 32.2094 172.595C31.7577 172.243 31.4125 171.733 31.1739 171.065C30.9352 170.395 30.8159 169.585 30.8159 168.636C30.8159 167.693 30.9352 166.888 31.1739 166.22C31.4153 165.55 31.7619 165.038 32.2136 164.686C32.6682 164.331 33.2136 164.153 33.85 164.153C34.4864 164.153 35.0304 164.331 35.4821 164.686C35.9366 165.038 36.2832 165.55 36.5219 166.22C36.7634 166.888 36.8841 167.693 36.8841 168.636C36.8841 169.585 36.7648 170.395 36.5261 171.065C36.2875 171.733 35.9423 172.243 35.4906 172.595C35.0389 172.945 34.492 173.119 33.85 173.119ZM33.85 172.182C34.4864 172.182 34.9807 171.875 35.333 171.261C35.6852 170.648 35.8614 169.773 35.8614 168.636C35.8614 167.881 35.7804 167.237 35.6185 166.706C35.4594 166.175 35.2293 165.77 34.9281 165.491C34.6298 165.213 34.2705 165.074 33.85 165.074C33.2193 165.074 32.7264 165.385 32.3713 166.007C32.0162 166.626 31.8386 167.503 31.8386 168.636C31.8386 169.392 31.9182 170.034 32.0773 170.562C32.2364 171.091 32.4651 171.493 32.7634 171.768C33.0645 172.044 33.4267 172.182 33.85 172.182ZM41.7 173.119C41.058 173.119 40.5111 172.945 40.0594 172.595C39.6077 172.243 39.2625 171.733 39.0239 171.065C38.7852 170.395 38.6659 169.585 38.6659 168.636C38.6659 167.693 38.7852 166.888 39.0239 166.22C39.2653 165.55 39.6119 165.038 40.0636 164.686C40.5182 164.331 41.0636 164.153 41.7 164.153C42.3364 164.153 42.8804 164.331 43.3321 164.686C43.7866 165.038 44.1332 165.55 44.3719 166.22C44.6134 166.888 44.7341 167.693 44.7341 168.636C44.7341 169.585 44.6148 170.395 44.3761 171.065C44.1375 171.733 43.7923 172.243 43.3406 172.595C42.8889 172.945 42.342 173.119 41.7 173.119ZM41.7 172.182C42.3364 172.182 42.8307 171.875 43.183 171.261C43.5352 170.648 43.7114 169.773 43.7114 168.636C43.7114 167.881 43.6304 167.237 43.4685 166.706C43.3094 166.175 43.0793 165.77 42.7781 165.491C42.4798 165.213 42.1205 165.074 41.7 165.074C41.0693 165.074 40.5764 165.385 40.2213 166.007C39.8662 166.626 39.6886 167.503 39.6886 168.636C39.6886 169.392 39.7682 170.034 39.9273 170.562C40.0864 171.091 40.3151 171.493 40.6134 171.768C40.9145 172.044 41.2767 172.182 41.7 172.182ZM49.55 173.119C48.908 173.119 48.3611 172.945 47.9094 172.595C47.4577 172.243 47.1125 171.733 46.8739 171.065C46.6352 170.395 46.5159 169.585 46.5159 168.636C46.5159 167.693 46.6352 166.888 46.8739 166.22C47.1153 165.55 47.4619 165.038 47.9136 164.686C48.3682 164.331 48.9136 164.153 49.55 164.153C50.1864 164.153 50.7304 164.331 51.1821 164.686C51.6366 165.038 51.9832 165.55 52.2219 166.22C52.4634 166.888 52.5841 167.693 52.5841 168.636C52.5841 169.585 52.4648 170.395 52.2261 171.065C51.9875 171.733 51.6423 172.243 51.1906 172.595C50.7389 172.945 50.192 173.119 49.55 173.119ZM49.55 172.182C50.1864 172.182 50.6807 171.875 51.033 171.261C51.3852 170.648 51.5614 169.773 51.5614 168.636C51.5614 167.881 51.4804 167.237 51.3185 166.706C51.1594 166.175 50.9293 165.77 50.6281 165.491C50.3298 165.213 49.9705 165.074 49.55 165.074C48.9193 165.074 48.4264 165.385 48.0713 166.007C47.7162 166.626 47.5386 167.503 47.5386 168.636C47.5386 169.392 47.6182 170.034 47.7773 170.562C47.9364 171.091 48.1651 171.493 48.4634 171.768C48.7645 172.044 49.1267 172.182 49.55 172.182ZM57.4 173.119C56.758 173.119 56.2111 172.945 55.7594 172.595C55.3077 172.243 54.9625 171.733 54.7239 171.065C54.4852 170.395 54.3659 169.585 54.3659 168.636C54.3659 167.693 54.4852 166.888 54.7239 166.22C54.9653 165.55 55.3119 165.038 55.7636 164.686C56.2182 164.331 56.7636 164.153 57.4 164.153C58.0364 164.153 58.5804 164.331 59.0321 164.686C59.4866 165.038 59.8332 165.55 60.0719 166.22C60.3134 166.888 60.4341 167.693 60.4341 168.636C60.4341 169.585 60.3148 170.395 60.0761 171.065C59.8375 171.733 59.4923 172.243 59.0406 172.595C58.5889 172.945 58.042 173.119 57.4 173.119ZM57.4 172.182C58.0364 172.182 58.5307 171.875 58.883 171.261C59.2352 170.648 59.4114 169.773 59.4114 168.636C59.4114 167.881 59.3304 167.237 59.1685 166.706C59.0094 166.175 58.7793 165.77 58.4781 165.491C58.1798 165.213 57.8205 165.074 57.4 165.074C56.7693 165.074 56.2764 165.385 55.9213 166.007C55.5662 166.626 55.3886 167.503 55.3886 168.636C55.3886 169.392 55.4682 170.034 55.6273 170.562C55.7864 171.091 56.0151 171.493 56.3134 171.768C56.6145 172.044 56.9767 172.182 57.4 172.182ZM65.25 173.119C64.608 173.119 64.0611 172.945 63.6094 172.595C63.1577 172.243 62.8125 171.733 62.5739 171.065C62.3352 170.395 62.2159 169.585 62.2159 168.636C62.2159 167.693 62.3352 166.888 62.5739 166.22C62.8153 165.55 63.1619 165.038 63.6136 164.686C64.0682 164.331 64.6136 164.153 65.25 164.153C65.8864 164.153 66.4304 164.331 66.8821 164.686C67.3366 165.038 67.6832 165.55 67.9219 166.22C68.1634 166.888 68.2841 167.693 68.2841 168.636C68.2841 169.585 68.1648 170.395 67.9261 171.065C67.6875 171.733 67.3423 172.243 66.8906 172.595C66.4389 172.945 65.892 173.119 65.25 173.119ZM65.25 172.182C65.8864 172.182 66.3807 171.875 66.733 171.261C67.0852 170.648 67.2614 169.773 67.2614 168.636C67.2614 167.881 67.1804 167.237 67.0185 166.706C66.8594 166.175 66.6293 165.77 66.3281 165.491C66.0298 165.213 65.6705 165.074 65.25 165.074C64.6193 165.074 64.1264 165.385 63.7713 166.007C63.4162 166.626 63.2386 167.503 63.2386 168.636C63.2386 169.392 63.3182 170.034 63.4773 170.562C63.6364 171.091 63.8651 171.493 64.1634 171.768C64.4645 172.044 64.8267 172.182 65.25 172.182Z" fill="#273B4A" fill-opacity="0.7"/>
<path d="M28.3427 204.273V213H27.2859V205.381H27.2347L25.104 206.795V205.722L27.2859 204.273H28.3427ZM33.9299 213.119C33.4299 213.119 32.9796 213.02 32.579 212.821C32.1785 212.622 31.8575 212.349 31.616 212.003C31.3745 211.656 31.2424 211.261 31.2197 210.818H32.2424C32.2822 211.213 32.4612 211.54 32.7793 211.798C33.1004 212.054 33.4839 212.182 33.9299 212.182C34.2879 212.182 34.606 212.098 34.8844 211.93C35.1657 211.763 35.3859 211.533 35.545 211.24C35.7069 210.945 35.7879 210.611 35.7879 210.239C35.7879 209.858 35.704 209.518 35.5364 209.22C35.3717 208.919 35.1444 208.682 34.8546 208.509C34.5648 208.335 34.2339 208.247 33.8617 208.244C33.5947 208.241 33.3205 208.283 33.0393 208.368C32.758 208.45 32.5265 208.557 32.3447 208.688L31.356 208.568L31.8844 204.273H36.4185V205.21H32.7708L32.464 207.784H32.5151C32.6941 207.642 32.9185 207.524 33.1884 207.43C33.4583 207.337 33.7396 207.29 34.0322 207.29C34.5663 207.29 35.0421 207.418 35.4597 207.673C35.8802 207.926 36.2097 208.273 36.4484 208.713C36.6898 209.153 36.8106 209.656 36.8106 210.222C36.8106 210.778 36.6856 211.276 36.4356 211.713C36.1884 212.148 35.8475 212.491 35.4129 212.744C34.9782 212.994 34.4839 213.119 33.9299 213.119ZM41.7 213.119C41.058 213.119 40.5111 212.945 40.0594 212.595C39.6077 212.243 39.2625 211.733 39.0239 211.065C38.7852 210.395 38.6659 209.585 38.6659 208.636C38.6659 207.693 38.7852 206.888 39.0239 206.22C39.2653 205.55 39.6119 205.038 40.0636 204.686C40.5182 204.331 41.0636 204.153 41.7 204.153C42.3364 204.153 42.8804 204.331 43.3321 204.686C43.7866 205.038 44.1332 205.55 44.3719 206.22C44.6134 206.888 44.7341 207.693 44.7341 208.636C44.7341 209.585 44.6148 210.395 44.3761 211.065C44.1375 211.733 43.7923 212.243 43.3406 212.595C42.8889 212.945 42.342 213.119 41.7 213.119ZM41.7 212.182C42.3364 212.182 42.8307 211.875 43.183 211.261C43.5352 210.648 43.7114 209.773 43.7114 208.636C43.7114 207.881 43.6304 207.237 43.4685 206.706C43.3094 206.175 43.0793 205.77 42.7781 205.491C42.4798 205.213 42.1205 205.074 41.7 205.074C41.0693 205.074 40.5764 205.385 40.2213 206.007C39.8662 206.626 39.6886 207.503 39.6886 208.636C39.6886 209.392 39.7682 210.034 39.9273 210.562C40.0864 211.091 40.3151 211.493 40.6134 211.768C40.9145 212.044 41.2767 212.182 41.7 212.182ZM49.55 213.119C48.908 213.119 48.3611 212.945 47.9094 212.595C47.4577 212.243 47.1125 211.733 46.8739 211.065C46.6352 210.395 46.5159 209.585 46.5159 208.636C46.5159 207.693 46.6352 206.888 46.8739 206.22C47.1153 205.55 47.4619 205.038 47.9136 204.686C48.3682 204.331 48.9136 204.153 49.55 204.153C50.1864 204.153 50.7304 204.331 51.1821 204.686C51.6366 205.038 51.9832 205.55 52.2219 206.22C52.4634 206.888 52.5841 207.693 52.5841 208.636C52.5841 209.585 52.4648 210.395 52.2261 211.065C51.9875 211.733 51.6423 212.243 51.1906 212.595C50.7389 212.945 50.192 213.119 49.55 213.119ZM49.55 212.182C50.1864 212.182 50.6807 211.875 51.033 211.261C51.3852 210.648 51.5614 209.773 51.5614 208.636C51.5614 207.881 51.4804 207.237 51.3185 206.706C51.1594 206.175 50.9293 205.77 50.6281 205.491C50.3298 205.213 49.9705 205.074 49.55 205.074C48.9193 205.074 48.4264 205.385 48.0713 206.007C47.7162 206.626 47.5386 207.503 47.5386 208.636C47.5386 209.392 47.6182 210.034 47.7773 210.562C47.9364 211.091 48.1651 211.493 48.4634 211.768C48.7645 212.044 49.1267 212.182 49.55 212.182ZM57.4 213.119C56.758 213.119 56.2111 212.945 55.7594 212.595C55.3077 212.243 54.9625 211.733 54.7239 211.065C54.4852 210.395 54.3659 209.585 54.3659 208.636C54.3659 207.693 54.4852 206.888 54.7239 206.22C54.9653 205.55 55.3119 205.038 55.7636 204.686C56.2182 204.331 56.7636 204.153 57.4 204.153C58.0364 204.153 58.5804 204.331 59.0321 204.686C59.4866 205.038 59.8332 205.55 60.0719 206.22C60.3134 206.888 60.4341 207.693 60.4341 208.636C60.4341 209.585 60.3148 210.395 60.0761 211.065C59.8375 211.733 59.4923 212.243 59.0406 212.595C58.5889 212.945 58.042 213.119 57.4 213.119ZM57.4 212.182C58.0364 212.182 58.5307 211.875 58.883 211.261C59.2352 210.648 59.4114 209.773 59.4114 208.636C59.4114 207.881 59.3304 207.237 59.1685 206.706C59.0094 206.175 58.7793 205.77 58.4781 205.491C58.1798 205.213 57.8205 205.074 57.4 205.074C56.7693 205.074 56.2764 205.385 55.9213 206.007C55.5662 206.626 55.3886 207.503 55.3886 208.636C55.3886 209.392 55.4682 210.034 55.6273 210.562C55.7864 211.091 56.0151 211.493 56.3134 211.768C56.6145 212.044 56.9767 212.182 57.4 212.182ZM65.25 213.119C64.608 213.119 64.0611 212.945 63.6094 212.595C63.1577 212.243 62.8125 211.733 62.5739 211.065C62.3352 210.395 62.2159 209.585 62.2159 208.636C62.2159 207.693 62.3352 206.888 62.5739 206.22C62.8153 205.55 63.1619 205.038 63.6136 204.686C64.0682 204.331 64.6136 204.153 65.25 204.153C65.8864 204.153 66.4304 204.331 66.8821 204.686C67.3366 205.038 67.6832 205.55 67.9219 206.22C68.1634 206.888 68.2841 207.693 68.2841 208.636C68.2841 209.585 68.1648 210.395 67.9261 211.065C67.6875 211.733 67.3423 212.243 66.8906 212.595C66.4389 212.945 65.892 213.119 65.25 213.119ZM65.25 212.182C65.8864 212.182 66.3807 211.875 66.733 211.261C67.0852 210.648 67.2614 209.773 67.2614 208.636C67.2614 207.881 67.1804 207.237 67.0185 206.706C66.8594 206.175 66.6293 205.77 66.3281 205.491C66.0298 205.213 65.6705 205.074 65.25 205.074C64.6193 205.074 64.1264 205.385 63.7713 206.007C63.4162 206.626 63.2386 207.503 63.2386 208.636C63.2386 209.392 63.3182 210.034 63.4773 210.562C63.6364 211.091 63.8651 211.493 64.1634 211.768C64.4645 212.044 64.8267 212.182 65.25 212.182Z" fill="#273B4A" fill-opacity="0.7"/>
<path d="M25.0396 244.273V253H23.9827V245.381H23.9316L21.8009 246.795V245.722L23.9827 244.273H25.0396ZM30.7461 253.119C30.104 253.119 29.5572 252.945 29.1055 252.595C28.6538 252.243 28.3086 251.733 28.07 251.065C27.8313 250.395 27.712 249.585 27.712 248.636C27.712 247.693 27.8313 246.888 28.07 246.22C28.3114 245.55 28.658 245.038 29.1097 244.686C29.5643 244.331 30.1097 244.153 30.7461 244.153C31.3825 244.153 31.9265 244.331 32.3782 244.686C32.8327 245.038 33.1793 245.55 33.418 246.22C33.6594 246.888 33.7802 247.693 33.7802 248.636C33.7802 249.585 33.6609 250.395 33.4222 251.065C33.1836 251.733 32.8384 252.243 32.3867 252.595C31.935 252.945 31.3881 253.119 30.7461 253.119ZM30.7461 252.182C31.3825 252.182 31.8768 251.875 32.229 251.261C32.5813 250.648 32.7575 249.773 32.7575 248.636C32.7575 247.881 32.6765 247.237 32.5146 246.706C32.3555 246.175 32.1254 245.77 31.8242 245.491C31.5259 245.213 31.1665 245.074 30.7461 245.074C30.1154 245.074 29.6225 245.385 29.2674 246.007C28.9123 246.626 28.7347 247.503 28.7347 248.636C28.7347 249.392 28.8143 250.034 28.9734 250.562C29.1325 251.091 29.3612 251.493 29.6594 251.768C29.9606 252.044 30.3228 252.182 30.7461 252.182ZM38.5961 253.119C37.954 253.119 37.4072 252.945 36.9555 252.595C36.5038 252.243 36.1586 251.733 35.92 251.065C35.6813 250.395 35.562 249.585 35.562 248.636C35.562 247.693 35.6813 246.888 35.92 246.22C36.1614 245.55 36.508 245.038 36.9597 244.686C37.4143 244.331 37.9597 244.153 38.5961 244.153C39.2325 244.153 39.7765 244.331 40.2282 244.686C40.6827 245.038 41.0293 245.55 41.268 246.22C41.5094 246.888 41.6302 247.693 41.6302 248.636C41.6302 249.585 41.5109 250.395 41.2722 251.065C41.0336 251.733 40.6884 252.243 40.2367 252.595C39.785 252.945 39.2381 253.119 38.5961 253.119ZM38.5961 252.182C39.2325 252.182 39.7268 251.875 40.079 251.261C40.4313 250.648 40.6075 249.773 40.6075 248.636C40.6075 247.881 40.5265 247.237 40.3646 246.706C40.2055 246.175 39.9754 245.77 39.6742 245.491C39.3759 245.213 39.0165 245.074 38.5961 245.074C37.9654 245.074 37.4725 245.385 37.1174 246.007C36.7623 246.626 36.5847 247.503 36.5847 248.636C36.5847 249.392 36.6643 250.034 36.8234 250.562C36.9825 251.091 37.2112 251.493 37.5094 251.768C37.8106 252.044 38.1728 252.182 38.5961 252.182ZM44.8119 251.807L44.7437 252.267C44.6954 252.591 44.6215 252.938 44.5221 253.307C44.4255 253.676 44.3246 254.024 44.2195 254.351C44.1144 254.678 44.0278 254.938 43.9596 255.131H43.1925C43.2295 254.949 43.2778 254.709 43.3374 254.411C43.3971 254.112 43.4567 253.778 43.5164 253.409C43.5789 253.043 43.63 252.668 43.6698 252.284L43.721 251.807H44.8119ZM49.55 253.119C48.908 253.119 48.3611 252.945 47.9094 252.595C47.4577 252.243 47.1125 251.733 46.8739 251.065C46.6352 250.395 46.5159 249.585 46.5159 248.636C46.5159 247.693 46.6352 246.888 46.8739 246.22C47.1153 245.55 47.4619 245.038 47.9136 244.686C48.3682 244.331 48.9136 244.153 49.55 244.153C50.1864 244.153 50.7304 244.331 51.1821 244.686C51.6366 245.038 51.9832 245.55 52.2219 246.22C52.4634 246.888 52.5841 247.693 52.5841 248.636C52.5841 249.585 52.4648 250.395 52.2261 251.065C51.9875 251.733 51.6423 252.243 51.1906 252.595C50.7389 252.945 50.192 253.119 49.55 253.119ZM49.55 252.182C50.1864 252.182 50.6807 251.875 51.033 251.261C51.3852 250.648 51.5614 249.773 51.5614 248.636C51.5614 247.881 51.4804 247.237 51.3185 246.706C51.1594 246.175 50.9293 245.77 50.6281 245.491C50.3298 245.213 49.9705 245.074 49.55 245.074C48.9193 245.074 48.4264 245.385 48.0713 246.007C47.7162 246.626 47.5386 247.503 47.5386 248.636C47.5386 249.392 47.6182 250.034 47.7773 250.562C47.9364 251.091 48.1651 251.493 48.4634 251.768C48.7645 252.044 49.1267 252.182 49.55 252.182ZM57.4 253.119C56.758 253.119 56.2111 252.945 55.7594 252.595C55.3077 252.243 54.9625 251.733 54.7239 251.065C54.4852 250.395 54.3659 249.585 54.3659 248.636C54.3659 247.693 54.4852 246.888 54.7239 246.22C54.9653 245.55 55.3119 245.038 55.7636 244.686C56.2182 244.331 56.7636 244.153 57.4 244.153C58.0364 244.153 58.5804 244.331 59.0321 244.686C59.4866 245.038 59.8332 245.55 60.0719 246.22C60.3134 246.888 60.4341 247.693 60.4341 248.636C60.4341 249.585 60.3148 250.395 60.0761 251.065C59.8375 251.733 59.4923 252.243 59.0406 252.595C58.5889 252.945 58.042 253.119 57.4 253.119ZM57.4 252.182C58.0364 252.182 58.5307 251.875 58.883 251.261C59.2352 250.648 59.4114 249.773 59.4114 248.636C59.4114 247.881 59.3304 247.237 59.1685 246.706C59.0094 246.175 58.7793 245.77 58.4781 245.491C58.1798 245.213 57.8205 245.074 57.4 245.074C56.7693 245.074 56.2764 245.385 55.9213 246.007C55.5662 246.626 55.3886 247.503 55.3886 248.636C55.3886 249.392 55.4682 250.034 55.6273 250.562C55.7864 251.091 56.0151 251.493 56.3134 251.768C56.6145 252.044 56.9767 252.182 57.4 252.182ZM65.25 253.119C64.608 253.119 64.0611 252.945 63.6094 252.595C63.1577 252.243 62.8125 251.733 62.5739 251.065C62.3352 250.395 62.2159 249.585 62.2159 248.636C62.2159 247.693 62.3352 246.888 62.5739 246.22C62.8153 245.55 63.1619 245.038 63.6136 244.686C64.0682 244.331 64.6136 244.153 65.25 244.153C65.8864 244.153 66.4304 244.331 66.8821 244.686C67.3366 245.038 67.6832 245.55 67.9219 246.22C68.1634 246.888 68.2841 247.693 68.2841 248.636C68.2841 249.585 68.1648 250.395 67.9261 251.065C67.6875 251.733 67.3423 252.243 66.8906 252.595C66.4389 252.945 65.892 253.119 65.25 253.119ZM65.25 252.182C65.8864 252.182 66.3807 251.875 66.733 251.261C67.0852 250.648 67.2614 249.773 67.2614 248.636C67.2614 247.881 67.1804 247.237 67.0185 246.706C66.8594 246.175 66.6293 245.77 66.3281 245.491C66.0298 245.213 65.6705 245.074 65.25 245.074C64.6193 245.074 64.1264 245.385 63.7713 246.007C63.4162 246.626 63.2386 247.503 63.2386 248.636C63.2386 249.392 63.3182 250.034 63.4773 250.562C63.6364 251.091 63.8651 251.493 64.1634 251.768C64.4645 252.044 64.8267 252.182 65.25 252.182Z" fill="#273B4A" fill-opacity="0.7"/>
<path d="M30.826 293.119C30.326 293.119 29.8757 293.02 29.4751 292.821C29.0746 292.622 28.7536 292.349 28.5121 292.003C28.2706 291.656 28.1385 291.261 28.1158 290.818H29.1385C29.1783 291.213 29.3572 291.54 29.6754 291.798C29.9964 292.054 30.38 292.182 30.826 292.182C31.1839 292.182 31.5021 292.098 31.7805 291.93C32.0618 291.763 32.282 291.533 32.4411 291.24C32.603 290.945 32.6839 290.611 32.6839 290.239C32.6839 289.858 32.6001 289.518 32.4325 289.22C32.2678 288.919 32.0405 288.682 31.7507 288.509C31.4609 288.335 31.13 288.247 30.7578 288.244C30.4908 288.241 30.2166 288.283 29.9354 288.368C29.6541 288.45 29.4226 288.557 29.2408 288.688L28.2521 288.568L28.7805 284.273H33.3146V285.21H29.6669L29.3601 287.784H29.4112C29.5902 287.642 29.8146 287.524 30.0845 287.43C30.3544 287.337 30.6357 287.29 30.9283 287.29C31.4624 287.29 31.9382 287.418 32.3558 287.673C32.7763 287.926 33.1058 288.273 33.3445 288.713C33.5859 289.153 33.7067 289.656 33.7067 290.222C33.7067 290.778 33.5817 291.276 33.3317 291.713C33.0845 292.148 32.7436 292.491 32.3089 292.744C31.8743 292.994 31.38 293.119 30.826 293.119ZM38.5961 293.119C37.954 293.119 37.4072 292.945 36.9555 292.595C36.5038 292.243 36.1586 291.733 35.92 291.065C35.6813 290.395 35.562 289.585 35.562 288.636C35.562 287.693 35.6813 286.888 35.92 286.22C36.1614 285.55 36.508 285.038 36.9597 284.686C37.4143 284.331 37.9597 284.153 38.5961 284.153C39.2325 284.153 39.7765 284.331 40.2282 284.686C40.6827 285.038 41.0293 285.55 41.268 286.22C41.5094 286.888 41.6302 287.693 41.6302 288.636C41.6302 289.585 41.5109 290.395 41.2722 291.065C41.0336 291.733 40.6884 292.243 40.2367 292.595C39.785 292.945 39.2381 293.119 38.5961 293.119ZM38.5961 292.182C39.2325 292.182 39.7268 291.875 40.079 291.261C40.4313 290.648 40.6075 289.773 40.6075 288.636C40.6075 287.881 40.5265 287.237 40.3646 286.706C40.2055 286.175 39.9754 285.77 39.6742 285.491C39.3759 285.213 39.0165 285.074 38.5961 285.074C37.9654 285.074 37.4725 285.385 37.1174 286.007C36.7623 286.626 36.5847 287.503 36.5847 288.636C36.5847 289.392 36.6643 290.034 36.8234 290.562C36.9825 291.091 37.2112 291.493 37.5094 291.768C37.8106 292.044 38.1728 292.182 38.5961 292.182ZM44.8119 291.807L44.7437 292.267C44.6954 292.591 44.6215 292.938 44.5221 293.307C44.4255 293.676 44.3246 294.024 44.2195 294.351C44.1144 294.678 44.0278 294.938 43.9596 295.131H43.1925C43.2295 294.949 43.2778 294.709 43.3374 294.411C43.3971 294.112 43.4567 293.778 43.5164 293.409C43.5789 293.043 43.63 292.668 43.6698 292.284L43.721 291.807H44.8119ZM49.55 293.119C48.908 293.119 48.3611 292.945 47.9094 292.595C47.4577 292.243 47.1125 291.733 46.8739 291.065C46.6352 290.395 46.5159 289.585 46.5159 288.636C46.5159 287.693 46.6352 286.888 46.8739 286.22C47.1153 285.55 47.4619 285.038 47.9136 284.686C48.3682 284.331 48.9136 284.153 49.55 284.153C50.1864 284.153 50.7304 284.331 51.1821 284.686C51.6366 285.038 51.9832 285.55 52.2219 286.22C52.4634 286.888 52.5841 287.693 52.5841 288.636C52.5841 289.585 52.4648 290.395 52.2261 291.065C51.9875 291.733 51.6423 292.243 51.1906 292.595C50.7389 292.945 50.192 293.119 49.55 293.119ZM49.55 292.182C50.1864 292.182 50.6807 291.875 51.033 291.261C51.3852 290.648 51.5614 289.773 51.5614 288.636C51.5614 287.881 51.4804 287.237 51.3185 286.706C51.1594 286.175 50.9293 285.77 50.6281 285.491C50.3298 285.213 49.9705 285.074 49.55 285.074C48.9193 285.074 48.4264 285.385 48.0713 286.007C47.7162 286.626 47.5386 287.503 47.5386 288.636C47.5386 289.392 47.6182 290.034 47.7773 290.562C47.9364 291.091 48.1651 291.493 48.4634 291.768C48.7645 292.044 49.1267 292.182 49.55 292.182ZM57.4 293.119C56.758 293.119 56.2111 292.945 55.7594 292.595C55.3077 292.243 54.9625 291.733 54.7239 291.065C54.4852 290.395 54.3659 289.585 54.3659 288.636C54.3659 287.693 54.4852 286.888 54.7239 286.22C54.9653 285.55 55.3119 285.038 55.7636 284.686C56.2182 284.331 56.7636 284.153 57.4 284.153C58.0364 284.153 58.5804 284.331 59.0321 284.686C59.4866 285.038 59.8332 285.55 60.0719 286.22C60.3134 286.888 60.4341 287.693 60.4341 288.636C60.4341 289.585 60.3148 290.395 60.0761 291.065C59.8375 291.733 59.4923 292.243 59.0406 292.595C58.5889 292.945 58.042 293.119 57.4 293.119ZM57.4 292.182C58.0364 292.182 58.5307 291.875 58.883 291.261C59.2352 290.648 59.4114 289.773 59.4114 288.636C59.4114 287.881 59.3304 287.237 59.1685 286.706C59.0094 286.175 58.7793 285.77 58.4781 285.491C58.1798 285.213 57.8205 285.074 57.4 285.074C56.7693 285.074 56.2764 285.385 55.9213 286.007C55.5662 286.626 55.3886 287.503 55.3886 288.636C55.3886 289.392 55.4682 290.034 55.6273 290.562C55.7864 291.091 56.0151 291.493 56.3134 291.768C56.6145 292.044 56.9767 292.182 57.4 292.182ZM65.25 293.119C64.608 293.119 64.0611 292.945 63.6094 292.595C63.1577 292.243 62.8125 291.733 62.5739 291.065C62.3352 290.395 62.2159 289.585 62.2159 288.636C62.2159 287.693 62.3352 286.888 62.5739 286.22C62.8153 285.55 63.1619 285.038 63.6136 284.686C64.0682 284.331 64.6136 284.153 65.25 284.153C65.8864 284.153 66.4304 284.331 66.8821 284.686C67.3366 285.038 67.6832 285.55 67.9219 286.22C68.1634 286.888 68.2841 287.693 68.2841 288.636C68.2841 289.585 68.1648 290.395 67.9261 291.065C67.6875 291.733 67.3423 292.243 66.8906 292.595C66.4389 292.945 65.892 293.119 65.25 293.119ZM65.25 292.182C65.8864 292.182 66.3807 291.875 66.733 291.261C67.0852 290.648 67.2614 289.773 67.2614 288.636C67.2614 287.881 67.1804 287.237 67.0185 286.706C66.8594 286.175 66.6293 285.77 66.3281 285.491C66.0298 285.213 65.6705 285.074 65.25 285.074C64.6193 285.074 64.1264 285.385 63.7713 286.007C63.4162 286.626 63.2386 287.503 63.2386 288.636C63.2386 289.392 63.3182 290.034 63.4773 290.562C63.6364 291.091 63.8651 291.493 64.1634 291.768C64.4645 292.044 64.8267 292.182 65.25 292.182Z" fill="#273B4A" fill-opacity="0.7"/>
<path d="M65.25 333.119C64.608 333.119 64.0611 332.945 63.6094 332.595C63.1577 332.243 62.8125 331.733 62.5739 331.065C62.3352 330.395 62.2159 329.585 62.2159 328.636C62.2159 327.693 62.3352 326.888 62.5739 326.22C62.8153 325.55 63.1619 325.038 63.6136 324.686C64.0682 324.331 64.6136 324.153 65.25 324.153C65.8864 324.153 66.4304 324.331 66.8821 324.686C67.3366 325.038 67.6832 325.55 67.9219 326.22C68.1634 326.888 68.2841 327.693 68.2841 328.636C68.2841 329.585 68.1648 330.395 67.9261 331.065C67.6875 331.733 67.3423 332.243 66.8906 332.595C66.4389 332.945 65.892 333.119 65.25 333.119ZM65.25 332.182C65.8864 332.182 66.3807 331.875 66.733 331.261C67.0852 330.648 67.2614 329.773 67.2614 328.636C67.2614 327.881 67.1804 327.237 67.0185 326.706C66.8594 326.175 66.6293 325.77 66.3281 325.491C66.0298 325.213 65.6705 325.074 65.25 325.074C64.6193 325.074 64.1264 325.385 63.7713 326.007C63.4162 326.626 63.2386 327.503 63.2386 328.636C63.2386 329.392 63.3182 330.034 63.4773 330.562C63.6364 331.091 63.8651 331.493 64.1634 331.768C64.4645 332.044 64.8267 332.182 65.25 332.182Z" fill="#273B4A" fill-opacity="0.7"/>
<path d="M64 86L778 86" stroke="#D7DBDE" stroke-linecap="round" stroke-dasharray="4 4"/>
<path d="M64 126L778 126" stroke="#D7DBDE" stroke-linecap="round" stroke-dasharray="4 4"/>
<path d="M64 166L778 166" stroke="#D7DBDE" stroke-linecap="round" stroke-dasharray="4 4"/>
<path d="M64 206L778 206" stroke="#D7DBDE" stroke-linecap="round" stroke-dasharray="4 4"/>
<path d="M64 246L778 246" stroke="#D7DBDE" stroke-linecap="round" stroke-dasharray="4 4"/>
<path d="M64 286L778 286" stroke="#D7DBDE" stroke-linecap="round" stroke-dasharray="4 4"/>
<path d="M64 326L778 326" stroke="#D7DBDE" stroke-linecap="round"/>
<path d="M30.5376 31.6172C30.4912 31.183 30.2957 30.8449 29.951 30.603C29.6096 30.361 29.1655 30.2401 28.6186 30.2401C28.2341 30.2401 27.9044 30.2981 27.6293 30.4141C27.3542 30.5301 27.1437 30.6875 26.9979 30.8864C26.852 31.0852 26.7775 31.3123 26.7741 31.5675C26.7741 31.7796 26.8222 31.9635 26.9183 32.1193C27.0178 32.2751 27.152 32.4077 27.321 32.517C27.4901 32.6231 27.6773 32.7126 27.8828 32.7855C28.0883 32.8584 28.2955 32.9197 28.5043 32.9695L29.4588 33.2081C29.8433 33.2976 30.2128 33.4186 30.5675 33.571C30.9254 33.7235 31.2453 33.9157 31.527 34.1477C31.812 34.3797 32.0374 34.6598 32.2031 34.9879C32.3688 35.3161 32.4517 35.7005 32.4517 36.1413C32.4517 36.7379 32.2992 37.2633 31.9943 37.7173C31.6894 38.1681 31.2486 38.5211 30.6719 38.7763C30.0985 39.0282 29.4041 39.1541 28.5888 39.1541C27.7966 39.1541 27.1089 39.0315 26.5256 38.7862C25.9455 38.541 25.4915 38.183 25.1634 37.7124C24.8385 37.2417 24.6629 36.6683 24.6364 35.9922H26.451C26.4775 36.3468 26.5869 36.6418 26.7791 36.8771C26.9714 37.1125 27.2216 37.2881 27.5298 37.4041C27.8414 37.5201 28.1894 37.5781 28.5739 37.5781C28.9749 37.5781 29.3262 37.5185 29.6278 37.3991C29.9328 37.2765 30.1714 37.1075 30.3438 36.892C30.5161 36.6733 30.6039 36.4181 30.6072 36.1264C30.6039 35.8613 30.526 35.6425 30.3736 35.4702C30.2211 35.2945 30.0073 35.1487 29.7322 35.0327C29.4605 34.9134 29.1423 34.8073 28.7777 34.7145L27.6193 34.4162C26.7808 34.2008 26.1179 33.8743 25.6307 33.4368C25.1468 32.996 24.9048 32.411 24.9048 31.6818C24.9048 31.0819 25.0672 30.5566 25.392 30.1058C25.7202 29.6551 26.166 29.3054 26.7294 29.0568C27.2929 28.8049 27.9309 28.679 28.6435 28.679C29.366 28.679 29.9991 28.8049 30.5426 29.0568C31.0895 29.3054 31.5187 29.6518 31.8303 30.0959C32.1418 30.5367 32.3026 31.0438 32.3125 31.6172H30.5376ZM37.8297 31.3636V32.7557H33.4398V31.3636H37.8297ZM34.5236 29.5341H36.3233V36.7031C36.3233 36.9451 36.3598 37.1307 36.4327 37.2599C36.5089 37.3859 36.6084 37.4721 36.731 37.5185C36.8536 37.5649 36.9895 37.5881 37.1387 37.5881C37.2514 37.5881 37.3541 37.5798 37.4469 37.5632C37.543 37.5466 37.6159 37.5317 37.6657 37.5185L37.9689 38.9254C37.8728 38.9586 37.7353 38.995 37.5563 39.0348C37.3806 39.0746 37.1652 39.0978 36.91 39.1044C36.4592 39.1177 36.0532 39.0497 35.6919 38.9006C35.3307 38.7481 35.044 38.5128 34.8319 38.1946C34.623 37.8764 34.5203 37.4787 34.5236 37.0014V29.5341ZM41.5323 39.1541C41.0484 39.1541 40.6126 39.0679 40.2248 38.8956C39.8403 38.7199 39.5354 38.4614 39.31 38.12C39.0879 37.7786 38.9769 37.3577 38.9769 36.8572C38.9769 36.4264 39.0565 36.0701 39.2156 35.7884C39.3746 35.5066 39.5917 35.2812 39.8668 35.1122C40.1419 34.9432 40.4518 34.8156 40.7965 34.7294C41.1445 34.6399 41.5041 34.5753 41.8754 34.5355C42.3228 34.4891 42.6857 34.4477 42.9641 34.4112C43.2425 34.3714 43.4447 34.3118 43.5707 34.2322C43.6999 34.1494 43.7646 34.0218 43.7646 33.8494V33.8196C43.7646 33.4451 43.6535 33.1551 43.4315 32.9496C43.2094 32.7441 42.8896 32.6413 42.4719 32.6413C42.0311 32.6413 41.6815 32.7375 41.4229 32.9297C41.1677 33.1219 40.9954 33.349 40.9059 33.6108L39.2255 33.3722C39.3581 32.9081 39.5768 32.5204 39.8817 32.2088C40.1867 31.8939 40.5595 31.6586 41.0004 31.5028C41.4412 31.3438 41.9284 31.2642 42.462 31.2642C42.8299 31.2642 43.1961 31.3073 43.5607 31.3935C43.9253 31.4796 44.2584 31.6222 44.56 31.821C44.8616 32.0166 45.1036 32.2834 45.2859 32.6214C45.4715 32.9595 45.5643 33.3821 45.5643 33.8892V39H43.8342V37.951H43.7745C43.6651 38.1631 43.511 38.362 43.3121 38.5476C43.1166 38.7299 42.8697 38.8774 42.5714 38.9901C42.2764 39.0994 41.93 39.1541 41.5323 39.1541ZM41.9996 37.8317C42.3609 37.8317 42.6741 37.7604 42.9393 37.6179C43.2044 37.4721 43.4083 37.2798 43.5508 37.0412C43.6966 36.8026 43.7695 36.5424 43.7695 36.2607V35.3608C43.7132 35.4072 43.6171 35.4503 43.4812 35.4901C43.3486 35.5298 43.1995 35.5646 43.0337 35.5945C42.868 35.6243 42.704 35.6508 42.5415 35.674C42.3791 35.6972 42.2383 35.7171 42.119 35.7337C41.8505 35.7701 41.6102 35.8298 41.3981 35.9126C41.186 35.9955 41.0186 36.1115 40.896 36.2607C40.7733 36.4065 40.712 36.5954 40.712 36.8274C40.712 37.1589 40.833 37.4091 41.0749 37.5781C41.3169 37.7472 41.6251 37.8317 41.9996 37.8317ZM51.1871 31.3636V32.7557H46.7972V31.3636H51.1871ZM47.881 29.5341H49.6808V36.7031C49.6808 36.9451 49.7172 37.1307 49.7901 37.2599C49.8664 37.3859 49.9658 37.4721 50.0884 37.5185C50.2111 37.5649 50.3469 37.5881 50.4961 37.5881C50.6088 37.5881 50.7115 37.5798 50.8043 37.5632C50.9004 37.5466 50.9734 37.5317 51.0231 37.5185L51.3263 38.9254C51.2302 38.9586 51.0927 38.995 50.9137 39.0348C50.738 39.0746 50.5226 39.0978 50.2674 39.1044C49.8166 39.1177 49.4106 39.0497 49.0494 38.9006C48.6881 38.7481 48.4014 38.5128 48.1893 38.1946C47.9805 37.8764 47.8777 37.4787 47.881 37.0014V29.5341ZM52.6923 39V31.3636H54.492V39H52.6923ZM53.5971 30.2798C53.3121 30.2798 53.0668 30.1854 52.8613 29.9964C52.6558 29.8042 52.5531 29.5739 52.5531 29.3054C52.5531 29.0336 52.6558 28.8033 52.8613 28.6143C53.0668 28.4221 53.3121 28.326 53.5971 28.326C53.8855 28.326 54.1307 28.4221 54.3329 28.6143C54.5384 28.8033 54.6412 29.0336 54.6412 29.3054C54.6412 29.5739 54.5384 29.8042 54.3329 29.9964C54.1307 30.1854 53.8855 30.2798 53.5971 30.2798ZM62.3782 33.3821L60.7376 33.5611C60.6912 33.3954 60.61 33.2396 60.494 33.0938C60.3813 32.9479 60.2288 32.8303 60.0366 32.7408C59.8443 32.6513 59.609 32.6065 59.3306 32.6065C58.9561 32.6065 58.6412 32.6877 58.386 32.8501C58.1341 33.0125 58.0098 33.223 58.0131 33.4815C58.0098 33.7036 58.091 33.8842 58.2567 34.0234C58.4258 34.1626 58.7042 34.277 59.092 34.3665L60.3945 34.6449C61.1171 34.8007 61.654 35.0476 62.0053 35.3857C62.36 35.7237 62.5389 36.1662 62.5423 36.7131C62.5389 37.1937 62.3981 37.6179 62.1197 37.9858C61.8446 38.3504 61.4618 38.6354 60.9712 38.8409C60.4807 39.0464 59.9173 39.1491 59.2809 39.1491C58.3462 39.1491 57.5939 38.9536 57.0238 38.5625C56.4537 38.1681 56.114 37.6196 56.0046 36.9169L57.7596 36.7479C57.8391 37.0926 58.0082 37.3527 58.2667 37.5284C58.5252 37.7041 58.8616 37.7919 59.2759 37.7919C59.7035 37.7919 60.0465 37.7041 60.305 37.5284C60.5669 37.3527 60.6978 37.1357 60.6978 36.8771C60.6978 36.6584 60.6133 36.4777 60.4442 36.3352C60.2785 36.1927 60.02 36.0833 59.6687 36.0071L58.3661 35.7337C57.6336 35.5812 57.0917 35.3243 56.7404 34.9631C56.3891 34.5985 56.2151 34.1378 56.2184 33.581C56.2151 33.1103 56.3427 32.7027 56.6012 32.358C56.863 32.0099 57.226 31.7415 57.69 31.5526C58.1573 31.3603 58.6959 31.2642 59.3058 31.2642C60.2006 31.2642 60.9049 31.4548 61.4187 31.8359C61.9357 32.2171 62.2556 32.7325 62.3782 33.3821ZM67.8395 31.3636V32.7557H63.4496V31.3636H67.8395ZM64.5334 29.5341H66.3331V36.7031C66.3331 36.9451 66.3696 37.1307 66.4425 37.2599C66.5187 37.3859 66.6181 37.4721 66.7408 37.5185C66.8634 37.5649 66.9993 37.5881 67.1484 37.5881C67.2611 37.5881 67.3639 37.5798 67.4567 37.5632C67.5528 37.5466 67.6257 37.5317 67.6754 37.5185L67.9787 38.9254C67.8826 38.9586 67.745 38.995 67.5661 39.0348C67.3904 39.0746 67.175 39.0978 66.9197 39.1044C66.469 39.1177 66.063 39.0497 65.7017 38.9006C65.3404 38.7481 65.0537 38.5128 64.8416 38.1946C64.6328 37.8764 64.5301 37.4787 64.5334 37.0014V29.5341ZM69.3446 39V31.3636H71.1444V39H69.3446ZM70.2495 30.2798C69.9644 30.2798 69.7192 30.1854 69.5137 29.9964C69.3082 29.8042 69.2054 29.5739 69.2054 29.3054C69.2054 29.0336 69.3082 28.8033 69.5137 28.6143C69.7192 28.4221 69.9644 28.326 70.2495 28.326C70.5378 28.326 70.7831 28.4221 70.9853 28.6143C71.1908 28.8033 71.2935 29.0336 71.2935 29.3054C71.2935 29.5739 71.1908 29.8042 70.9853 29.9964C70.7831 30.1854 70.5378 30.2798 70.2495 30.2798ZM76.326 39.1491C75.5637 39.1491 74.9091 38.9818 74.3622 38.647C73.8187 38.3123 73.3994 37.8499 73.1044 37.2599C72.8127 36.6667 72.6669 35.9839 72.6669 35.2116C72.6669 34.4361 72.8161 33.7517 73.1143 33.1584C73.4126 32.5618 73.8336 32.0978 74.3771 31.7663C74.924 31.4316 75.5703 31.2642 76.3161 31.2642C76.9358 31.2642 77.4844 31.3786 77.9616 31.6072C78.4422 31.8326 78.825 32.1525 79.1101 32.5668C79.3951 32.9777 79.5575 33.4583 79.5973 34.0085H77.8771C77.8075 33.6406 77.6418 33.334 77.38 33.0888C77.1214 32.8402 76.7751 32.7159 76.3409 32.7159C75.973 32.7159 75.6499 32.8153 75.3714 33.0142C75.093 33.2098 74.8759 33.4915 74.7202 33.8594C74.5677 34.2273 74.4915 34.6681 74.4915 35.1818C74.4915 35.7022 74.5677 36.1496 74.7202 36.5241C74.8726 36.8954 75.0864 37.1821 75.3615 37.3842C75.6399 37.5831 75.9664 37.6825 76.3409 37.6825C76.6061 37.6825 76.843 37.6328 77.0518 37.5334C77.264 37.4306 77.4413 37.2831 77.5838 37.0909C77.7263 36.8987 77.8241 36.665 77.8771 36.3899H79.5973C79.5542 36.9302 79.3951 37.4091 79.12 37.8267C78.8449 38.241 78.4704 38.5658 77.9964 38.8011C77.5225 39.0331 76.9657 39.1491 76.326 39.1491ZM87.1106 33.3821L85.47 33.5611C85.4236 33.3954 85.3424 33.2396 85.2264 33.0938C85.1137 32.9479 84.9612 32.8303 84.769 32.7408C84.5768 32.6513 84.3414 32.6065 84.063 32.6065C83.6885 32.6065 83.3736 32.6877 83.1184 32.8501C82.8665 33.0125 82.7422 33.223 82.7456 33.4815C82.7422 33.7036 82.8234 33.8842 82.9892 34.0234C83.1582 34.1626 83.4366 34.277 83.8244 34.3665L85.127 34.6449C85.8495 34.8007 86.3864 35.0476 86.7377 35.3857C87.0924 35.7237 87.2714 36.1662 87.2747 36.7131C87.2714 37.1937 87.1305 37.6179 86.8521 37.9858C86.577 38.3504 86.1942 38.6354 85.7037 38.8409C85.2131 39.0464 84.6497 39.1491 84.0133 39.1491C83.0787 39.1491 82.3263 38.9536 81.7562 38.5625C81.1861 38.1681 80.8464 37.6196 80.737 36.9169L82.492 36.7479C82.5716 37.0926 82.7406 37.3527 82.9991 37.5284C83.2576 37.7041 83.594 37.7919 84.0083 37.7919C84.4359 37.7919 84.7789 37.7041 85.0375 37.5284C85.2993 37.3527 85.4302 37.1357 85.4302 36.8771C85.4302 36.6584 85.3457 36.4777 85.1767 36.3352C85.0109 36.1927 84.7524 36.0833 84.4011 36.0071L83.0985 35.7337C82.3661 35.5812 81.8242 35.3243 81.4728 34.9631C81.1215 34.5985 80.9475 34.1378 80.9508 33.581C80.9475 33.1103 81.0751 32.7027 81.3336 32.358C81.5955 32.0099 81.9584 31.7415 82.4224 31.5526C82.8897 31.3603 83.4283 31.2642 84.0382 31.2642C84.9331 31.2642 85.6374 31.4548 86.1511 31.8359C86.6681 32.2171 86.988 32.7325 87.1106 33.3821ZM98.2669 33.3821L96.6262 33.5611C96.5798 33.3954 96.4986 33.2396 96.3826 33.0938C96.2699 32.9479 96.1175 32.8303 95.9252 32.7408C95.733 32.6513 95.4977 32.6065 95.2193 32.6065C94.8448 32.6065 94.5299 32.6877 94.2747 32.8501C94.0228 33.0125 93.8985 33.223 93.9018 33.4815C93.8985 33.7036 93.9797 33.8842 94.1454 34.0234C94.3145 34.1626 94.5929 34.277 94.9806 34.3665L96.2832 34.6449C97.0057 34.8007 97.5427 35.0476 97.894 35.3857C98.2486 35.7237 98.4276 36.1662 98.4309 36.7131C98.4276 37.1937 98.2868 37.6179 98.0083 37.9858C97.7333 38.3504 97.3504 38.6354 96.8599 38.8409C96.3694 39.0464 95.8059 39.1491 95.1696 39.1491C94.2349 39.1491 93.4825 38.9536 92.9125 38.5625C92.3424 38.1681 92.0027 37.6196 91.8933 36.9169L93.6483 36.7479C93.7278 37.0926 93.8968 37.3527 94.1554 37.5284C94.4139 37.7041 94.7503 37.7919 95.1646 37.7919C95.5922 37.7919 95.9352 37.7041 96.1937 37.5284C96.4556 37.3527 96.5865 37.1357 96.5865 36.8771C96.5865 36.6584 96.502 36.4777 96.3329 36.3352C96.1672 36.1927 95.9087 36.0833 95.5574 36.0071L94.2548 35.7337C93.5223 35.5812 92.9804 35.3243 92.6291 34.9631C92.2778 34.5985 92.1038 34.1378 92.1071 33.581C92.1038 33.1103 92.2314 32.7027 92.4899 32.358C92.7517 32.0099 93.1146 31.7415 93.5787 31.5526C94.046 31.3603 94.5846 31.2642 95.1944 31.2642C96.0893 31.2642 96.7936 31.4548 97.3074 31.8359C97.8244 32.2171 98.1442 32.7325 98.2669 33.3821ZM101.715 34.5256V39H99.915V28.8182H101.675V32.6612H101.764C101.943 32.2304 102.22 31.8906 102.595 31.642C102.972 31.3902 103.453 31.2642 104.036 31.2642C104.567 31.2642 105.029 31.3752 105.423 31.5973C105.818 31.8194 106.123 32.1442 106.338 32.5717C106.557 32.9993 106.666 33.5213 106.666 34.1378V39H104.867V34.4162C104.867 33.9025 104.734 33.5031 104.469 33.218C104.207 32.9297 103.839 32.7855 103.365 32.7855C103.047 32.7855 102.762 32.8551 102.51 32.9943C102.262 33.1302 102.066 33.3274 101.923 33.5859C101.784 33.8445 101.715 34.1577 101.715 34.5256ZM111.832 39.1491C111.086 39.1491 110.44 38.9851 109.893 38.657C109.346 38.3288 108.922 37.8698 108.62 37.2798C108.322 36.6899 108.173 36.0005 108.173 35.2116C108.173 34.4228 108.322 33.7318 108.62 33.1385C108.922 32.5452 109.346 32.0845 109.893 31.7564C110.44 31.4283 111.086 31.2642 111.832 31.2642C112.578 31.2642 113.224 31.4283 113.771 31.7564C114.318 32.0845 114.74 32.5452 115.039 33.1385C115.34 33.7318 115.491 34.4228 115.491 35.2116C115.491 36.0005 115.34 36.6899 115.039 37.2798C114.74 37.8698 114.318 38.3288 113.771 38.657C113.224 38.9851 112.578 39.1491 111.832 39.1491ZM111.842 37.7074C112.246 37.7074 112.584 37.5964 112.856 37.3743C113.128 37.1489 113.33 36.8473 113.463 36.4695C113.598 36.0916 113.666 35.6707 113.666 35.2067C113.666 34.7393 113.598 34.3168 113.463 33.9389C113.33 33.5578 113.128 33.2545 112.856 33.0291C112.584 32.8037 112.246 32.6911 111.842 32.6911C111.427 32.6911 111.083 32.8037 110.808 33.0291C110.536 33.2545 110.332 33.5578 110.196 33.9389C110.064 34.3168 109.997 34.7393 109.997 35.2067C109.997 35.6707 110.064 36.0916 110.196 36.4695C110.332 36.8473 110.536 37.1489 110.808 37.3743C111.083 37.5964 111.427 37.7074 111.842 37.7074ZM118.376 39L116.218 31.3636H118.053L119.395 36.733H119.464L120.837 31.3636H122.651L124.023 36.7031H124.098L125.42 31.3636H127.26L125.097 39H123.223L121.791 33.8395H121.687L120.255 39H118.376ZM128.517 39V31.3636H130.316V39H128.517ZM129.421 30.2798C129.136 30.2798 128.891 30.1854 128.686 29.9964C128.48 29.8042 128.377 29.5739 128.377 29.3054C128.377 29.0336 128.48 28.8033 128.686 28.6143C128.891 28.4221 129.136 28.326 129.421 28.326C129.71 28.326 129.955 28.4221 130.157 28.6143C130.363 28.8033 130.465 29.0336 130.465 29.3054C130.465 29.5739 130.363 29.8042 130.157 29.9964C129.955 30.1854 129.71 30.2798 129.421 30.2798ZM133.967 34.5256V39H132.167V31.3636H133.887V32.6612H133.977C134.152 32.2337 134.432 31.8939 134.817 31.642C135.205 31.3902 135.683 31.2642 136.254 31.2642C136.781 31.2642 137.24 31.3769 137.631 31.6023C138.025 31.8277 138.33 32.1541 138.545 32.5817C138.764 33.0092 138.872 33.5279 138.869 34.1378V39H137.069V34.4162C137.069 33.9058 136.936 33.5064 136.671 33.218C136.409 32.9297 136.046 32.7855 135.582 32.7855C135.268 32.7855 134.987 32.8551 134.742 32.9943C134.5 33.1302 134.31 33.3274 134.17 33.5859C134.035 33.8445 133.967 34.1577 133.967 34.5256ZM144.019 42.0227C143.373 42.0227 142.818 41.9349 142.354 41.7592C141.89 41.5869 141.517 41.3549 141.235 41.0632C140.953 40.7715 140.758 40.4484 140.648 40.0938L142.269 39.701C142.342 39.8501 142.448 39.9976 142.587 40.1435C142.727 40.2926 142.914 40.4152 143.149 40.5114C143.388 40.6108 143.688 40.6605 144.049 40.6605C144.559 40.6605 144.982 40.5362 145.317 40.2876C145.652 40.0424 145.819 39.638 145.819 39.0746V37.6278H145.729C145.637 37.8134 145.501 38.004 145.322 38.1996C145.146 38.3951 144.912 38.5592 144.621 38.6918C144.332 38.8243 143.969 38.8906 143.532 38.8906C142.945 38.8906 142.413 38.7531 141.936 38.478C141.462 38.1996 141.084 37.7853 140.803 37.2351C140.524 36.6816 140.385 35.9889 140.385 35.157C140.385 34.3184 140.524 33.6108 140.803 33.0341C141.084 32.4541 141.464 32.0149 141.941 31.7166C142.418 31.415 142.95 31.2642 143.537 31.2642C143.984 31.2642 144.352 31.3404 144.641 31.4929C144.932 31.642 145.164 31.8227 145.337 32.0348C145.509 32.2436 145.64 32.4408 145.729 32.6264H145.829V31.3636H147.604V39.1243C147.604 39.7772 147.448 40.3175 147.136 40.745C146.825 41.1726 146.399 41.4924 145.859 41.7045C145.318 41.9167 144.705 42.0227 144.019 42.0227ZM144.034 37.4787C144.415 37.4787 144.74 37.3859 145.009 37.2003C145.277 37.0147 145.481 36.7479 145.62 36.3999C145.759 36.0518 145.829 35.6342 145.829 35.147C145.829 34.6664 145.759 34.2455 145.62 33.8842C145.484 33.523 145.282 33.2429 145.013 33.044C144.748 32.8419 144.422 32.7408 144.034 32.7408C143.633 32.7408 143.298 32.8452 143.03 33.054C142.761 33.2628 142.559 33.5495 142.423 33.9141C142.287 34.2753 142.219 34.6863 142.219 35.147C142.219 35.6143 142.287 36.0237 142.423 36.375C142.563 36.723 142.766 36.9948 143.035 37.1903C143.307 37.3826 143.64 37.4787 144.034 37.4787ZM154.039 41.8636C153.794 41.8636 153.567 41.8438 153.358 41.804C153.153 41.7675 152.989 41.7244 152.866 41.6747L153.284 40.2727C153.546 40.349 153.779 40.3854 153.985 40.3821C154.19 40.3788 154.371 40.3142 154.527 40.1882C154.686 40.0656 154.82 39.8601 154.929 39.5717L155.083 39.1591L152.314 31.3636H154.223L155.983 37.1307H156.063L157.828 31.3636H159.742L156.684 39.9247C156.542 40.3291 156.353 40.6754 156.118 40.9638C155.882 41.2554 155.594 41.4775 155.252 41.63C154.914 41.7857 154.51 41.8636 154.039 41.8636ZM164.058 39.1491C163.313 39.1491 162.666 38.9851 162.119 38.657C161.573 38.3288 161.148 37.8698 160.847 37.2798C160.548 36.6899 160.399 36.0005 160.399 35.2116C160.399 34.4228 160.548 33.7318 160.847 33.1385C161.148 32.5452 161.573 32.0845 162.119 31.7564C162.666 31.4283 163.313 31.2642 164.058 31.2642C164.804 31.2642 165.45 31.4283 165.997 31.7564C166.544 32.0845 166.967 32.5452 167.265 33.1385C167.567 33.7318 167.718 34.4228 167.718 35.2116C167.718 36.0005 167.567 36.6899 167.265 37.2798C166.967 37.8698 166.544 38.3288 165.997 38.657C165.45 38.9851 164.804 39.1491 164.058 39.1491ZM164.068 37.7074C164.473 37.7074 164.811 37.5964 165.083 37.3743C165.354 37.1489 165.557 36.8473 165.689 36.4695C165.825 36.0916 165.893 35.6707 165.893 35.2067C165.893 34.7393 165.825 34.3168 165.689 33.9389C165.557 33.5578 165.354 33.2545 165.083 33.0291C164.811 32.8037 164.473 32.6911 164.068 32.6911C163.654 32.6911 163.309 32.8037 163.034 33.0291C162.762 33.2545 162.559 33.5578 162.423 33.9389C162.29 34.3168 162.224 34.7393 162.224 35.2067C162.224 35.6707 162.29 36.0916 162.423 36.4695C162.559 36.8473 162.762 37.1489 163.034 37.3743C163.309 37.5964 163.654 37.7074 164.068 37.7074ZM174.112 35.7884V31.3636H175.912V39H174.167V37.6428H174.087C173.915 38.0703 173.632 38.42 173.237 38.6918C172.846 38.9635 172.364 39.0994 171.79 39.0994C171.29 39.0994 170.848 38.9884 170.463 38.7663C170.082 38.541 169.784 38.2145 169.568 37.7869C169.353 37.3561 169.245 36.8357 169.245 36.2259V31.3636H171.045V35.9474C171.045 36.4313 171.177 36.8158 171.442 37.1009C171.708 37.3859 172.056 37.5284 172.487 37.5284C172.752 37.5284 173.009 37.4638 173.257 37.3345C173.506 37.2053 173.71 37.013 173.869 36.7578C174.031 36.4993 174.112 36.1761 174.112 35.7884ZM177.763 39V31.3636H179.508V32.6364H179.587C179.726 32.1955 179.965 31.8558 180.303 31.6172C180.644 31.3752 181.034 31.2543 181.471 31.2543C181.571 31.2543 181.682 31.2592 181.805 31.2692C181.93 31.2758 182.035 31.2874 182.118 31.304V32.9595C182.041 32.933 181.921 32.9098 181.755 32.8899C181.592 32.8667 181.435 32.8551 181.282 32.8551C180.954 32.8551 180.659 32.9264 180.398 33.0689C180.139 33.2081 179.935 33.402 179.786 33.6506C179.637 33.8991 179.562 34.1858 179.562 34.5107V39H177.763ZM186.786 39V31.3636H188.506V32.6612H188.596C188.755 32.2237 189.018 31.8823 189.386 31.6371C189.754 31.3885 190.193 31.2642 190.704 31.2642C191.221 31.2642 191.657 31.3902 192.011 31.642C192.369 31.8906 192.621 32.2304 192.767 32.6612H192.846C193.015 32.237 193.3 31.8989 193.702 31.647C194.106 31.3918 194.585 31.2642 195.138 31.2642C195.841 31.2642 196.414 31.4863 196.858 31.9304C197.303 32.3745 197.525 33.0225 197.525 33.8743V39H195.72V34.1527C195.72 33.6787 195.594 33.3324 195.342 33.1136C195.09 32.8916 194.782 32.7805 194.417 32.7805C193.983 32.7805 193.644 32.9164 193.398 33.1882C193.156 33.4567 193.035 33.8063 193.035 34.2372V39H191.27V34.0781C191.27 33.6837 191.151 33.3688 190.912 33.1335C190.677 32.8982 190.369 32.7805 189.988 32.7805C189.729 32.7805 189.494 32.8468 189.282 32.9794C189.07 33.1087 188.901 33.2926 188.775 33.5312C188.649 33.7666 188.586 34.0417 188.586 34.3565V39H186.786ZM202.681 39.1491C201.936 39.1491 201.289 38.9851 200.743 38.657C200.196 38.3288 199.771 37.8698 199.47 37.2798C199.172 36.6899 199.022 36.0005 199.022 35.2116C199.022 34.4228 199.172 33.7318 199.47 33.1385C199.771 32.5452 200.196 32.0845 200.743 31.7564C201.289 31.4283 201.936 31.2642 202.681 31.2642C203.427 31.2642 204.074 31.4283 204.62 31.7564C205.167 32.0845 205.59 32.5452 205.888 33.1385C206.19 33.7318 206.341 34.4228 206.341 35.2116C206.341 36.0005 206.19 36.6899 205.888 37.2798C205.59 37.8698 205.167 38.3288 204.62 38.657C204.074 38.9851 203.427 39.1491 202.681 39.1491ZM202.691 37.7074C203.096 37.7074 203.434 37.5964 203.706 37.3743C203.977 37.1489 204.18 36.8473 204.312 36.4695C204.448 36.0916 204.516 35.6707 204.516 35.2067C204.516 34.7393 204.448 34.3168 204.312 33.9389C204.18 33.5578 203.977 33.2545 203.706 33.0291C203.434 32.8037 203.096 32.6911 202.691 32.6911C202.277 32.6911 201.932 32.8037 201.657 33.0291C201.386 33.2545 201.182 33.5578 201.046 33.9389C200.913 34.3168 200.847 34.7393 200.847 35.2067C200.847 35.6707 200.913 36.0916 201.046 36.4695C201.182 36.8473 201.386 37.1489 201.657 37.3743C201.932 37.5964 202.277 37.7074 202.691 37.7074ZM209.668 34.5256V39H207.868V31.3636H209.588V32.6612H209.678C209.853 32.2337 210.133 31.8939 210.518 31.642C210.906 31.3902 211.385 31.2642 211.955 31.2642C212.482 31.2642 212.941 31.3769 213.332 31.6023C213.726 31.8277 214.031 32.1541 214.247 32.5817C214.465 33.0092 214.573 33.5279 214.57 34.1378V39H212.77V34.4162C212.77 33.9058 212.637 33.5064 212.372 33.218C212.11 32.9297 211.748 32.7855 211.284 32.7855C210.969 32.7855 210.689 32.8551 210.443 32.9943C210.201 33.1302 210.011 33.3274 209.872 33.5859C209.736 33.8445 209.668 34.1577 209.668 34.5256ZM220.213 31.3636V32.7557H215.823V31.3636H220.213ZM216.906 29.5341H218.706V36.7031C218.706 36.9451 218.743 37.1307 218.816 37.2599C218.892 37.3859 218.991 37.4721 219.114 37.5185C219.236 37.5649 219.372 37.5881 219.521 37.5881C219.634 37.5881 219.737 37.5798 219.83 37.5632C219.926 37.5466 219.999 37.5317 220.048 37.5185L220.352 38.9254C220.256 38.9586 220.118 38.995 219.939 39.0348C219.763 39.0746 219.548 39.0978 219.293 39.1044C218.842 39.1177 218.436 39.0497 218.075 38.9006C217.713 38.7481 217.427 38.5128 217.215 38.1946C217.006 37.8764 216.903 37.4787 216.906 37.0014V29.5341ZM223.681 34.5256V39H221.882V28.8182H223.642V32.6612H223.731C223.91 32.2304 224.187 31.8906 224.561 31.642C224.939 31.3902 225.42 31.2642 226.003 31.2642C226.533 31.2642 226.996 31.3752 227.39 31.5973C227.785 31.8194 228.09 32.1442 228.305 32.5717C228.524 32.9993 228.633 33.5213 228.633 34.1378V39H226.833V34.4162C226.833 33.9025 226.701 33.5031 226.436 33.218C226.174 32.9297 225.806 32.7855 225.332 32.7855C225.014 32.7855 224.729 32.8551 224.477 32.9943C224.228 33.1302 224.033 33.3274 223.89 33.5859C223.751 33.8445 223.681 34.1577 223.681 34.5256ZM232.267 28.8182V39H230.468V28.8182H232.267ZM235.237 41.8636C234.991 41.8636 234.764 41.8438 234.556 41.804C234.35 41.7675 234.186 41.7244 234.063 41.6747L234.481 40.2727C234.743 40.349 234.977 40.3854 235.182 40.3821C235.387 40.3788 235.568 40.3142 235.724 40.1882C235.883 40.0656 236.017 39.8601 236.127 39.5717L236.281 39.1591L233.512 31.3636H235.421L237.181 37.1307H237.26L239.025 31.3636H240.939L237.882 39.9247C237.739 40.3291 237.55 40.6754 237.315 40.9638C237.079 41.2554 236.791 41.4775 236.45 41.63C236.112 41.7857 235.707 41.8636 235.237 41.8636ZM251.693 33.3821L250.052 33.5611C250.006 33.3954 249.924 33.2396 249.808 33.0938C249.696 32.9479 249.543 32.8303 249.351 32.7408C249.159 32.6513 248.923 32.6065 248.645 32.6065C248.271 32.6065 247.956 32.6877 247.7 32.8501C247.449 33.0125 247.324 33.223 247.328 33.4815C247.324 33.7036 247.405 33.8842 247.571 34.0234C247.74 34.1626 248.019 34.277 248.406 34.3665L249.709 34.6449C250.432 34.8007 250.968 35.0476 251.32 35.3857C251.674 35.7237 251.853 36.1662 251.857 36.7131C251.853 37.1937 251.713 37.6179 251.434 37.9858C251.159 38.3504 250.776 38.6354 250.286 38.8409C249.795 39.0464 249.232 39.1491 248.595 39.1491C247.661 39.1491 246.908 38.9536 246.338 38.5625C245.768 38.1681 245.428 37.6196 245.319 36.9169L247.074 36.7479C247.154 37.0926 247.323 37.3527 247.581 37.5284C247.84 37.7041 248.176 37.7919 248.59 37.7919C249.018 37.7919 249.361 37.7041 249.619 37.5284C249.881 37.3527 250.012 37.1357 250.012 36.8771C250.012 36.6584 249.928 36.4777 249.759 36.3352C249.593 36.1927 249.334 36.0833 248.983 36.0071L247.681 35.7337C246.948 35.5812 246.406 35.3243 246.055 34.9631C245.704 34.5985 245.53 34.1378 245.533 33.581C245.53 33.1103 245.657 32.7027 245.916 32.358C246.177 32.0099 246.54 31.7415 247.004 31.5526C247.472 31.3603 248.01 31.2642 248.62 31.2642C249.515 31.2642 250.219 31.4548 250.733 31.8359C251.25 32.2171 251.57 32.7325 251.693 33.3821ZM253.341 41.8636V31.3636H255.111V32.6264H255.215C255.308 32.4408 255.439 32.2436 255.608 32.0348C255.777 31.8227 256.006 31.642 256.294 31.4929C256.582 31.3404 256.95 31.2642 257.398 31.2642C257.988 31.2642 258.519 31.415 258.993 31.7166C259.471 32.0149 259.849 32.4574 260.127 33.044C260.409 33.6274 260.55 34.3433 260.55 35.1918C260.55 36.0303 260.412 36.7429 260.137 37.3295C259.862 37.9162 259.487 38.3636 259.013 38.6719C258.539 38.9801 258.002 39.1342 257.403 39.1342C256.965 39.1342 256.602 39.0613 256.314 38.9155C256.025 38.7696 255.793 38.594 255.618 38.3885C255.445 38.1797 255.311 37.9825 255.215 37.7969H255.14V41.8636H253.341ZM255.106 35.1818C255.106 35.6757 255.175 36.1082 255.314 36.4794C255.457 36.8506 255.661 37.1406 255.926 37.3494C256.194 37.5549 256.519 37.6577 256.9 37.6577C257.298 37.6577 257.631 37.5516 257.9 37.3395C258.168 37.1241 258.37 36.8307 258.506 36.4595C258.645 36.085 258.715 35.6591 258.715 35.1818C258.715 34.7079 258.647 34.2869 258.511 33.919C258.375 33.5511 258.173 33.2628 257.905 33.054C257.636 32.8452 257.301 32.7408 256.9 32.7408C256.516 32.7408 256.189 32.8419 255.921 33.044C255.653 33.2462 255.449 33.5296 255.309 33.8942C255.174 34.2588 255.106 34.688 255.106 35.1818ZM265.471 39.1491C264.706 39.1491 264.045 38.9901 263.488 38.6719C262.934 38.3504 262.508 37.8963 262.21 37.3097C261.912 36.7197 261.763 36.0253 261.763 35.2266C261.763 34.4411 261.912 33.7517 262.21 33.1584C262.512 32.5618 262.933 32.0978 263.473 31.7663C264.013 31.4316 264.648 31.2642 265.377 31.2642C265.848 31.2642 266.292 31.3404 266.709 31.4929C267.13 31.642 267.501 31.8741 267.823 32.1889C268.148 32.5038 268.403 32.9048 268.589 33.392C268.774 33.8759 268.867 34.4527 268.867 35.1222V35.674H262.608V34.4609H267.142C267.139 34.1162 267.064 33.8097 266.918 33.5412C266.772 33.2694 266.568 33.0556 266.307 32.8999C266.048 32.7441 265.747 32.6662 265.402 32.6662C265.034 32.6662 264.711 32.7557 264.432 32.9347C264.154 33.1103 263.937 33.3423 263.781 33.6307C263.629 33.9157 263.551 34.2289 263.547 34.5703V35.6293C263.547 36.0734 263.629 36.4545 263.791 36.7727C263.953 37.0876 264.18 37.3295 264.472 37.4986C264.764 37.6643 265.105 37.7472 265.496 37.7472C265.758 37.7472 265.995 37.7107 266.207 37.6378C266.419 37.5616 266.603 37.4505 266.759 37.3047C266.915 37.1589 267.032 36.9782 267.112 36.7628L268.792 36.9517C268.686 37.3958 268.484 37.7836 268.186 38.1151C267.891 38.4432 267.513 38.6984 267.052 38.8807C266.592 39.0597 266.065 39.1491 265.471 39.1491ZM272.189 34.5256V39H270.39V31.3636H272.11V32.6612H272.199C272.375 32.2337 272.655 31.8939 273.039 31.642C273.427 31.3902 273.906 31.2642 274.476 31.2642C275.003 31.2642 275.462 31.3769 275.853 31.6023C276.248 31.8277 276.553 32.1541 276.768 32.5817C276.987 33.0092 277.095 33.5279 277.091 34.1378V39H275.292V34.4162C275.292 33.9058 275.159 33.5064 274.894 33.218C274.632 32.9297 274.269 32.7855 273.805 32.7855C273.49 32.7855 273.21 32.8551 272.965 32.9943C272.723 33.1302 272.532 33.3274 272.393 33.5859C272.257 33.8445 272.189 34.1577 272.189 34.5256ZM281.755 39.1342C281.155 39.1342 280.618 38.9801 280.144 38.6719C279.67 38.3636 279.295 37.9162 279.02 37.3295C278.745 36.7429 278.608 36.0303 278.608 35.1918C278.608 34.3433 278.747 33.6274 279.025 33.044C279.307 32.4574 279.686 32.0149 280.164 31.7166C280.641 31.415 281.173 31.2642 281.76 31.2642C282.207 31.2642 282.575 31.3404 282.863 31.4929C283.152 31.642 283.38 31.8227 283.549 32.0348C283.718 32.2436 283.849 32.4408 283.942 32.6264H284.017V28.8182H285.821V39H284.051V37.7969H283.942C283.849 37.9825 283.715 38.1797 283.539 38.3885C283.364 38.594 283.132 38.7696 282.843 38.9155C282.555 39.0613 282.192 39.1342 281.755 39.1342ZM282.257 37.6577C282.638 37.6577 282.963 37.5549 283.231 37.3494C283.5 37.1406 283.703 36.8506 283.843 36.4794C283.982 36.1082 284.051 35.6757 284.051 35.1818C284.051 34.688 283.982 34.2588 283.843 33.8942C283.707 33.5296 283.505 33.2462 283.236 33.044C282.971 32.8419 282.645 32.7408 282.257 32.7408C281.856 32.7408 281.521 32.8452 281.252 33.054C280.984 33.2628 280.782 33.5511 280.646 33.919C280.51 34.2869 280.442 34.7079 280.442 35.1818C280.442 35.6591 280.51 36.085 280.646 36.4595C280.785 36.8307 280.989 37.1241 281.257 37.3395C281.529 37.5516 281.862 37.6577 282.257 37.6577ZM287.739 39V31.3636H289.539V39H287.739ZM288.644 30.2798C288.359 30.2798 288.114 30.1854 287.908 29.9964C287.703 29.8042 287.6 29.5739 287.6 29.3054C287.6 29.0336 287.703 28.8033 287.908 28.6143C288.114 28.4221 288.359 28.326 288.644 28.326C288.932 28.326 289.178 28.4221 289.38 28.6143C289.585 28.8033 289.688 29.0336 289.688 29.3054C289.688 29.5739 289.585 29.8042 289.38 29.9964C289.178 30.1854 288.932 30.2798 288.644 30.2798ZM293.189 34.5256V39H291.39V31.3636H293.11V32.6612H293.199C293.375 32.2337 293.655 31.8939 294.039 31.642C294.427 31.3902 294.906 31.2642 295.476 31.2642C296.003 31.2642 296.462 31.3769 296.853 31.6023C297.248 31.8277 297.553 32.1541 297.768 32.5817C297.987 33.0092 298.095 33.5279 298.091 34.1378V39H296.292V34.4162C296.292 33.9058 296.159 33.5064 295.894 33.218C295.632 32.9297 295.269 32.7855 294.805 32.7855C294.49 32.7855 294.21 32.8551 293.965 32.9943C293.723 33.1302 293.532 33.3274 293.393 33.5859C293.257 33.8445 293.189 34.1577 293.189 34.5256ZM303.242 42.0227C302.596 42.0227 302.04 41.9349 301.576 41.7592C301.112 41.5869 300.739 41.3549 300.458 41.0632C300.176 40.7715 299.98 40.4484 299.871 40.0938L301.492 39.701C301.565 39.8501 301.671 39.9976 301.81 40.1435C301.949 40.2926 302.136 40.4152 302.372 40.5114C302.61 40.6108 302.91 40.6605 303.272 40.6605C303.782 40.6605 304.205 40.5362 304.539 40.2876C304.874 40.0424 305.042 39.638 305.042 39.0746V37.6278H304.952C304.859 37.8134 304.723 38.004 304.544 38.1996C304.369 38.3951 304.135 38.5592 303.843 38.6918C303.555 38.8243 303.192 38.8906 302.755 38.8906C302.168 38.8906 301.636 38.7531 301.159 38.478C300.685 38.1996 300.307 37.7853 300.025 37.2351C299.747 36.6816 299.608 35.9889 299.608 35.157C299.608 34.3184 299.747 33.6108 300.025 33.0341C300.307 32.4541 300.686 32.0149 301.164 31.7166C301.641 31.415 302.173 31.2642 302.76 31.2642C303.207 31.2642 303.575 31.3404 303.863 31.4929C304.155 31.642 304.387 31.8227 304.559 32.0348C304.732 32.2436 304.863 32.4408 304.952 32.6264H305.051V31.3636H306.826V39.1243C306.826 39.7772 306.671 40.3175 306.359 40.745C306.047 41.1726 305.622 41.4924 305.081 41.7045C304.541 41.9167 303.928 42.0227 303.242 42.0227ZM303.257 37.4787C303.638 37.4787 303.963 37.3859 304.231 37.2003C304.5 37.0147 304.703 36.7479 304.843 36.3999C304.982 36.0518 305.051 35.6342 305.051 35.147C305.051 34.6664 304.982 34.2455 304.843 33.8842C304.707 33.523 304.505 33.2429 304.236 33.044C303.971 32.8419 303.645 32.7408 303.257 32.7408C302.856 32.7408 302.521 32.8452 302.252 33.054C301.984 33.2628 301.782 33.5495 301.646 33.9141C301.51 34.2753 301.442 34.6863 301.442 35.147C301.442 35.6143 301.51 36.0237 301.646 36.375C301.785 36.723 301.989 36.9948 302.257 37.1903C302.529 37.3826 302.862 37.4787 303.257 37.4787Z" fill="#101828"/>
<path d="M767 178C728.806 178 705.435 252.327 671.052 252.327C636.669 252.327 609.903 182.301 590.475 182.301C571.047 182.301 563.906 222.797 538.445 222.797C512.984 222.797 513.663 200.31 495.612 200.31C477.561 200.31 453.513 239.811 411.392 239.811C369.271 239.811 354.089 195.634 327.829 195.634C301.569 195.634 271.649 257.261 246.708 257.261C221.766 257.261 211.853 230.657 188.295 230.657C164.737 230.657 159.176 258.17 114.717 277.422C107.964 280.171 99.0391 284.59 82.0004 286" stroke="#F71805" stroke-width="2" stroke-linecap="round"/>
<path d="M767 158C728.806 158 705.435 232.327 671.052 232.327C636.669 232.327 609.903 162.301 590.475 162.301C571.047 162.301 563.906 202.797 538.445 202.797C512.984 202.797 513.663 180.31 495.612 180.31C477.561 180.31 453.513 219.811 411.392 219.811C369.271 219.811 354.089 175.634 327.829 175.634C301.569 175.634 271.649 237.261 246.708 237.261C221.766 237.261 211.853 210.657 188.295 210.657C164.737 210.657 159.176 238.17 114.717 257.422C107.964 260.171 99.0391 264.59 82.0004 266" stroke="#40B5ED" stroke-width="2" stroke-linecap="round"/>
<path d="M99.6511 233.44C91.765 228.388 82 214.592 82 214.592V325.5H767V130C733.387 141.5 723.48 182.289 701.593 182.289C679.706 182.289 674.652 152.542 643.207 152.542C611.761 152.542 589.735 221.45 562.123 221.45C534.51 221.45 527.816 172.054 478.598 172.054C429.38 172.054 414.239 216.221 394.417 216.221C374.595 216.221 374.611 191.078 351.604 191.078C328.597 191.078 320.476 236.358 299.598 236.358C278.72 236.358 253.25 158.06 219.059 158.06C184.867 158.06 158.072 241.083 126.646 241.083C114.393 240.952 106.768 238 99.6511 233.44Z" fill="url(#paint0_linear_4845_1085)"/>
<path d="M82 214.592C82 214.592 91.765 228.388 99.6511 233.44C106.768 238 114.393 240.952 126.646 241.083C158.072 241.083 184.867 158.06 219.059 158.06C253.25 158.06 278.72 236.358 299.598 236.358C320.476 236.358 328.597 191.078 351.604 191.078C374.611 191.078 374.595 216.221 394.417 216.221C414.239 216.221 429.38 172.054 478.598 172.054C527.816 172.054 534.51 221.45 562.123 221.45C589.735 221.45 611.761 152.542 643.207 152.542C674.652 152.542 679.706 182.289 701.593 182.289C723.48 182.289 733.387 141.5 767 130" stroke="#3538CD" stroke-width="2" stroke-linecap="round"/>
<g clip-path="url(#clip0_4845_1085)">
<rect width="25" height="24" transform="translate(74 326)" fill="white"/>
<rect width="25" height="24" transform="translate(74 326)" fill="url(#paint1_linear_4845_1085)"/>
<path d="M79.4105 349.87C79.3038 349.87 79.1772 349.863 79.0305 349.85C78.8838 349.837 78.7338 349.813 78.5805 349.78V348.94C78.7072 348.967 78.8272 348.987 78.9405 349C79.0538 349.02 79.1538 349.03 79.2405 349.03C79.5472 349.03 79.7738 348.937 79.9205 348.75C80.0672 348.563 80.1405 348.267 80.1405 347.86V340.95H81.1805V347.87C81.1805 348.31 81.1172 348.677 80.9905 348.97C80.8638 349.27 80.6705 349.493 80.4105 349.64C80.1572 349.793 79.8238 349.87 79.4105 349.87ZM84.878 348.09C84.4313 348.09 84.0413 347.987 83.708 347.78C83.3747 347.573 83.1147 347.273 82.928 346.88C82.748 346.487 82.658 346.02 82.658 345.48C82.658 344.933 82.748 344.467 82.928 344.08C83.1147 343.693 83.3747 343.397 83.708 343.19C84.0413 342.977 84.4313 342.87 84.878 342.87C85.318 342.87 85.7013 342.98 86.028 343.2C86.3547 343.42 86.5713 343.72 86.678 344.1H86.568L86.668 342.96H87.648C87.628 343.167 87.608 343.373 87.588 343.58C87.5747 343.78 87.568 343.977 87.568 344.17V348H86.558V346.88H86.668C86.5613 347.253 86.3413 347.55 86.008 347.77C85.6813 347.983 85.3047 348.09 84.878 348.09ZM85.128 347.3C85.5613 347.3 85.908 347.147 86.168 346.84C86.4347 346.533 86.568 346.08 86.568 345.48C86.568 344.88 86.4347 344.43 86.168 344.13C85.908 343.823 85.5613 343.67 85.128 343.67C84.688 343.67 84.3347 343.823 84.068 344.13C83.808 344.43 83.678 344.88 83.678 345.48C83.678 346.08 83.808 346.533 84.068 346.84C84.328 347.147 84.6813 347.3 85.128 347.3ZM89.2418 348V344.17C89.2418 343.977 89.2318 343.78 89.2118 343.58C89.1984 343.373 89.1818 343.167 89.1618 342.96H90.1418L90.2318 344.02H90.1118C90.2651 343.647 90.5018 343.363 90.8218 343.17C91.1418 342.97 91.5118 342.87 91.9318 342.87C92.5251 342.87 92.9718 343.033 93.2718 343.36C93.5784 343.687 93.7318 344.193 93.7318 344.88V348H92.7218V344.94C92.7218 344.493 92.6318 344.173 92.4518 343.98C92.2784 343.78 92.0118 343.68 91.6518 343.68C91.2251 343.68 90.8851 343.813 90.6318 344.08C90.3784 344.34 90.2518 344.693 90.2518 345.14V348H89.2418Z" fill="#21334F" fill-opacity="0.5"/>
<path d="M87 326V332" stroke="#D7DBDE"/>
</g>
<g clip-path="url(#clip1_4845_1085)">
<path d="M140.109 348V340.95H144.629V341.78H141.149V344.04H144.399V344.87H141.149V348H140.109ZM148.038 348.09C147.224 348.09 146.584 347.86 146.118 347.4C145.651 346.94 145.418 346.303 145.418 345.49C145.418 344.963 145.518 344.503 145.718 344.11C145.924 343.717 146.208 343.413 146.568 343.2C146.934 342.98 147.358 342.87 147.838 342.87C148.311 342.87 148.708 342.97 149.028 343.17C149.348 343.37 149.591 343.653 149.758 344.02C149.924 344.38 150.008 344.807 150.008 345.3V345.62H146.208V345.04H149.318L149.148 345.17C149.148 344.67 149.034 344.283 148.808 344.01C148.588 343.73 148.268 343.59 147.848 343.59C147.381 343.59 147.021 343.753 146.768 344.08C146.514 344.4 146.388 344.843 146.388 345.41V345.51C146.388 346.103 146.531 346.55 146.818 346.85C147.111 347.15 147.524 347.3 148.058 347.3C148.351 347.3 148.624 347.26 148.878 347.18C149.138 347.093 149.384 346.953 149.618 346.76L149.948 347.45C149.714 347.657 149.431 347.817 149.098 347.93C148.764 348.037 148.411 348.09 148.038 348.09ZM154.057 348.09C153.617 348.09 153.233 347.98 152.907 347.76C152.58 347.54 152.363 347.24 152.257 346.86H152.367V348H151.367V340.64H152.377V344.08H152.257C152.37 343.707 152.587 343.413 152.907 343.2C153.233 342.98 153.617 342.87 154.057 342.87C154.503 342.87 154.893 342.977 155.227 343.19C155.56 343.397 155.817 343.697 155.997 344.09C156.183 344.477 156.277 344.943 156.277 345.49C156.277 346.03 156.183 346.497 155.997 346.89C155.817 347.277 155.557 347.573 155.217 347.78C154.883 347.987 154.497 348.09 154.057 348.09ZM153.807 347.3C154.24 347.3 154.59 347.15 154.857 346.85C155.123 346.543 155.257 346.09 155.257 345.49C155.257 344.883 155.123 344.43 154.857 344.13C154.59 343.823 154.24 343.67 153.807 343.67C153.367 343.67 153.013 343.823 152.747 344.13C152.487 344.43 152.357 344.88 152.357 345.48C152.357 346.08 152.487 346.533 152.747 346.84C153.013 347.147 153.367 347.3 153.807 347.3Z" fill="#21334F" fill-opacity="0.5"/>
<path d="M148 326V332" stroke="#D7DBDE"/>
</g>
<g clip-path="url(#clip2_4845_1085)">
<path d="M201.387 348V340.95H202.297L205.017 347.08H204.717L207.437 340.95H208.337V348H207.397V342.36H207.727L205.187 348H204.537L201.997 342.36H202.337V348H201.387ZM212.06 348.09C211.613 348.09 211.223 347.987 210.89 347.78C210.556 347.573 210.296 347.273 210.11 346.88C209.93 346.487 209.84 346.02 209.84 345.48C209.84 344.933 209.93 344.467 210.11 344.08C210.296 343.693 210.556 343.397 210.89 343.19C211.223 342.977 211.613 342.87 212.06 342.87C212.5 342.87 212.883 342.98 213.21 343.2C213.536 343.42 213.753 343.72 213.86 344.1H213.75L213.85 342.96H214.83C214.81 343.167 214.79 343.373 214.77 343.58C214.756 343.78 214.75 343.977 214.75 344.17V348H213.74V346.88H213.85C213.743 347.253 213.523 347.55 213.19 347.77C212.863 347.983 212.486 348.09 212.06 348.09ZM212.31 347.3C212.743 347.3 213.09 347.147 213.35 346.84C213.616 346.533 213.75 346.08 213.75 345.48C213.75 344.88 213.616 344.43 213.35 344.13C213.09 343.823 212.743 343.67 212.31 343.67C211.87 343.67 211.516 343.823 211.25 344.13C210.99 344.43 210.86 344.88 210.86 345.48C210.86 346.08 210.99 346.533 211.25 346.84C211.51 347.147 211.863 347.3 212.31 347.3ZM216.403 348V344.21C216.403 344.003 216.397 343.797 216.383 343.59C216.377 343.377 216.363 343.167 216.343 342.96H217.323L217.433 344.26H217.273C217.34 343.947 217.453 343.687 217.613 343.48C217.773 343.273 217.967 343.12 218.193 343.02C218.427 342.92 218.67 342.87 218.923 342.87C219.03 342.87 219.12 342.877 219.193 342.89C219.267 342.897 219.34 342.91 219.413 342.93L219.403 343.83C219.29 343.783 219.19 343.757 219.103 343.75C219.023 343.737 218.923 343.73 218.803 343.73C218.51 343.73 218.26 343.797 218.053 343.93C217.847 344.057 217.69 344.23 217.583 344.45C217.477 344.67 217.423 344.907 217.423 345.16V348H216.403Z" fill="#21334F" fill-opacity="0.5"/>
<path d="M209 326V332" stroke="#D7DBDE"/>
</g>
<g clip-path="url(#clip3_4845_1085)">
<path d="M261.257 348L264.397 340.95H265.287L268.477 348H267.407L266.537 346L266.977 346.28H262.707L263.177 346L262.307 348H261.257ZM264.827 342.09L263.307 345.68L263.067 345.45H266.617L266.417 345.68L264.867 342.09H264.827ZM269.519 350.16V344.17C269.519 343.977 269.509 343.78 269.489 343.58C269.476 343.373 269.459 343.167 269.439 342.96H270.419L270.519 344.1H270.409C270.516 343.72 270.729 343.42 271.049 343.2C271.376 342.98 271.763 342.87 272.209 342.87C272.656 342.87 273.046 342.977 273.379 343.19C273.713 343.397 273.969 343.693 274.149 344.08C274.336 344.467 274.429 344.933 274.429 345.48C274.429 346.02 274.336 346.487 274.149 346.88C273.969 347.273 273.713 347.573 273.379 347.78C273.046 347.987 272.656 348.09 272.209 348.09C271.769 348.09 271.386 347.983 271.059 347.77C270.739 347.55 270.526 347.253 270.419 346.88H270.529V350.16H269.519ZM271.959 347.3C272.399 347.3 272.749 347.147 273.009 346.84C273.276 346.533 273.409 346.08 273.409 345.48C273.409 344.88 273.276 344.43 273.009 344.13C272.749 343.823 272.399 343.67 271.959 343.67C271.519 343.67 271.166 343.823 270.899 344.13C270.639 344.43 270.509 344.88 270.509 345.48C270.509 346.08 270.639 346.533 270.899 346.84C271.166 347.147 271.519 347.3 271.959 347.3ZM275.793 348V344.21C275.793 344.003 275.786 343.797 275.773 343.59C275.766 343.377 275.753 343.167 275.733 342.96H276.713L276.823 344.26H276.663C276.73 343.947 276.843 343.687 277.003 343.48C277.163 343.273 277.356 343.12 277.583 343.02C277.816 342.92 278.06 342.87 278.313 342.87C278.42 342.87 278.51 342.877 278.583 342.89C278.656 342.897 278.73 342.91 278.803 342.93L278.793 343.83C278.68 343.783 278.58 343.757 278.493 343.75C278.413 343.737 278.313 343.73 278.193 343.73C277.9 343.73 277.65 343.797 277.443 343.93C277.236 344.057 277.08 344.23 276.973 344.45C276.866 344.67 276.813 344.907 276.813 345.16V348H275.793Z" fill="#21334F" fill-opacity="0.5"/>
<path d="M271 326V332" stroke="#D7DBDE"/>
</g>
<g clip-path="url(#clip4_4845_1085)">
<path d="M323.116 348V340.95H324.026L326.746 347.08H326.446L329.166 340.95H330.066V348H329.126V342.36H329.456L326.916 348H326.266L323.726 342.36H324.066V348H323.116ZM333.788 348.09C333.341 348.09 332.951 347.987 332.618 347.78C332.285 347.573 332.025 347.273 331.838 346.88C331.658 346.487 331.568 346.02 331.568 345.48C331.568 344.933 331.658 344.467 331.838 344.08C332.025 343.693 332.285 343.397 332.618 343.19C332.951 342.977 333.341 342.87 333.788 342.87C334.228 342.87 334.611 342.98 334.938 343.2C335.265 343.42 335.481 343.72 335.588 344.1H335.478L335.578 342.96H336.558C336.538 343.167 336.518 343.373 336.498 343.58C336.485 343.78 336.478 343.977 336.478 344.17V348H335.468V346.88H335.578C335.471 347.253 335.251 347.55 334.918 347.77C334.591 347.983 334.215 348.09 333.788 348.09ZM334.038 347.3C334.471 347.3 334.818 347.147 335.078 346.84C335.345 346.533 335.478 346.08 335.478 345.48C335.478 344.88 335.345 344.43 335.078 344.13C334.818 343.823 334.471 343.67 334.038 343.67C333.598 343.67 333.245 343.823 332.978 344.13C332.718 344.43 332.588 344.88 332.588 345.48C332.588 346.08 332.718 346.533 332.978 346.84C333.238 347.147 333.591 347.3 334.038 347.3ZM337.953 350.27L337.713 349.45C338.026 349.383 338.286 349.303 338.493 349.21C338.706 349.117 338.883 348.993 339.023 348.84C339.163 348.693 339.283 348.503 339.383 348.27L339.633 347.68L339.613 348.09L337.423 342.96H338.503L340.203 347.16H339.933L341.633 342.96H342.673L340.363 348.36C340.216 348.693 340.06 348.973 339.893 349.2C339.726 349.427 339.546 349.61 339.353 349.75C339.16 349.89 338.946 350 338.713 350.08C338.48 350.16 338.226 350.223 337.953 350.27Z" fill="#21334F" fill-opacity="0.5"/>
<path d="M333 326V332" stroke="#D7DBDE"/>
</g>
<g clip-path="url(#clip5_4845_1085)">
<path d="M386.528 349.87C386.421 349.87 386.294 349.863 386.148 349.85C386.001 349.837 385.851 349.813 385.698 349.78V348.94C385.824 348.967 385.944 348.987 386.058 349C386.171 349.02 386.271 349.03 386.358 349.03C386.664 349.03 386.891 348.937 387.038 348.75C387.184 348.563 387.258 348.267 387.258 347.86V340.95H388.298V347.87C388.298 348.31 388.234 348.677 388.108 348.97C387.981 349.27 387.788 349.493 387.528 349.64C387.274 349.793 386.941 349.87 386.528 349.87ZM391.855 348.09C391.249 348.09 390.792 347.927 390.485 347.6C390.185 347.267 390.035 346.757 390.035 346.07V342.96H391.045V346.05C391.045 346.47 391.132 346.78 391.305 346.98C391.479 347.18 391.742 347.28 392.095 347.28C392.495 347.28 392.819 347.147 393.065 346.88C393.312 346.613 393.435 346.26 393.435 345.82V342.96H394.445V348H393.465V346.92H393.595C393.455 347.293 393.232 347.583 392.925 347.79C392.619 347.99 392.262 348.09 391.855 348.09ZM396.125 348V344.17C396.125 343.977 396.115 343.78 396.095 343.58C396.081 343.373 396.065 343.167 396.045 342.96H397.025L397.115 344.02H396.995C397.148 343.647 397.385 343.363 397.705 343.17C398.025 342.97 398.395 342.87 398.815 342.87C399.408 342.87 399.855 343.033 400.155 343.36C400.461 343.687 400.615 344.193 400.615 344.88V348H399.605V344.94C399.605 344.493 399.515 344.173 399.335 343.98C399.161 343.78 398.895 343.68 398.535 343.68C398.108 343.68 397.768 343.813 397.515 344.08C397.261 344.34 397.135 344.693 397.135 345.14V348H396.125Z" fill="#21334F" fill-opacity="0.5"/>
<path d="M395 326V332" stroke="#D7DBDE"/>
</g>
<g clip-path="url(#clip6_4845_1085)">
<path d="M446.966 349.87C446.859 349.87 446.732 349.863 446.586 349.85C446.439 349.837 446.289 349.813 446.136 349.78V348.94C446.262 348.967 446.382 348.987 446.496 349C446.609 349.02 446.709 349.03 446.796 349.03C447.102 349.03 447.329 348.937 447.476 348.75C447.622 348.563 447.696 348.267 447.696 347.86V340.95H448.736V347.87C448.736 348.31 448.672 348.677 448.546 348.97C448.419 349.27 448.226 349.493 447.966 349.64C447.712 349.793 447.379 349.87 446.966 349.87ZM452.293 348.09C451.687 348.09 451.23 347.927 450.923 347.6C450.623 347.267 450.473 346.757 450.473 346.07V342.96H451.483V346.05C451.483 346.47 451.57 346.78 451.743 346.98C451.917 347.18 452.18 347.28 452.533 347.28C452.933 347.28 453.257 347.147 453.503 346.88C453.75 346.613 453.873 346.26 453.873 345.82V342.96H454.883V348H453.903V346.92H454.033C453.893 347.293 453.67 347.583 453.363 347.79C453.057 347.99 452.7 348.09 452.293 348.09ZM456.563 348V340.64H457.573V348H456.563ZM459.103 350.27L458.863 349.45C459.176 349.383 459.436 349.303 459.643 349.21C459.856 349.117 460.033 348.993 460.173 348.84C460.313 348.693 460.433 348.503 460.533 348.27L460.783 347.68L460.763 348.09L458.573 342.96H459.653L461.353 347.16H461.083L462.783 342.96H463.823L461.513 348.36C461.366 348.693 461.21 348.973 461.043 349.2C460.876 349.427 460.696 349.61 460.503 349.75C460.31 349.89 460.096 350 459.863 350.08C459.63 350.16 459.376 350.223 459.103 350.27Z" fill="#21334F" fill-opacity="0.5"/>
<path d="M455 326V332" stroke="#D7DBDE"/>
</g>
<g clip-path="url(#clip7_4845_1085)">
<path d="M506.698 348L509.838 340.95H510.728L513.918 348H512.848L511.978 346L512.418 346.28H508.148L508.618 346L507.748 348H506.698ZM510.268 342.09L508.748 345.68L508.508 345.45H512.058L511.858 345.68L510.308 342.09H510.268ZM516.75 348.09C516.143 348.09 515.686 347.927 515.38 347.6C515.08 347.267 514.93 346.757 514.93 346.07V342.96H515.94V346.05C515.94 346.47 516.026 346.78 516.2 346.98C516.373 347.18 516.636 347.28 516.99 347.28C517.39 347.28 517.713 347.147 517.96 346.88C518.206 346.613 518.33 346.26 518.33 345.82V342.96H519.34V348H518.36V346.92H518.49C518.35 347.293 518.126 347.583 517.82 347.79C517.513 347.99 517.156 348.09 516.75 348.09ZM523.289 350.24C522.836 350.24 522.422 350.187 522.049 350.08C521.682 349.973 521.352 349.813 521.059 349.6L521.309 348.86C521.516 349 521.719 349.11 521.919 349.19C522.119 349.277 522.329 349.34 522.549 349.38C522.769 349.42 522.996 349.44 523.229 349.44C523.709 349.44 524.069 349.317 524.309 349.07C524.556 348.83 524.679 348.48 524.679 348.02V346.67H524.779C524.672 347.043 524.452 347.34 524.119 347.56C523.792 347.773 523.412 347.88 522.979 347.88C522.519 347.88 522.119 347.78 521.779 347.58C521.446 347.373 521.186 347.083 520.999 346.71C520.819 346.33 520.729 345.883 520.729 345.37C520.729 344.857 520.819 344.413 520.999 344.04C521.186 343.667 521.446 343.38 521.779 343.18C522.119 342.973 522.519 342.87 522.979 342.87C523.419 342.87 523.799 342.98 524.119 343.2C524.446 343.413 524.662 343.707 524.769 344.08L524.679 344L524.769 342.96H525.749C525.722 343.167 525.702 343.373 525.689 343.58C525.676 343.78 525.669 343.977 525.669 344.17V347.9C525.669 348.66 525.466 349.24 525.059 349.64C524.659 350.04 524.069 350.24 523.289 350.24ZM523.219 347.09C523.659 347.09 524.009 346.94 524.269 346.64C524.536 346.34 524.669 345.917 524.669 345.37C524.669 344.823 524.536 344.403 524.269 344.11C524.009 343.817 523.659 343.67 523.219 343.67C522.766 343.67 522.406 343.817 522.139 344.11C521.879 344.403 521.749 344.823 521.749 345.37C521.749 345.917 521.879 346.34 522.139 346.64C522.406 346.94 522.766 347.09 523.219 347.09Z" fill="#21334F" fill-opacity="0.5"/>
<path d="M517 326V332" stroke="#D7DBDE"/>
</g>
<g clip-path="url(#clip8_4845_1085)">
<path d="M572.07 348.09C571.503 348.09 570.99 348.02 570.53 347.88C570.07 347.733 569.67 347.527 569.33 347.26L569.68 346.44C569.906 346.613 570.14 346.757 570.38 346.87C570.626 346.983 570.886 347.07 571.16 347.13C571.44 347.183 571.743 347.21 572.07 347.21C572.63 347.21 573.04 347.11 573.3 346.91C573.566 346.71 573.7 346.447 573.7 346.12C573.7 345.84 573.606 345.623 573.42 345.47C573.24 345.317 572.92 345.193 572.46 345.1L571.37 344.88C570.723 344.747 570.24 344.53 569.92 344.23C569.606 343.923 569.45 343.507 569.45 342.98C569.45 342.553 569.563 342.18 569.79 341.86C570.016 341.54 570.33 341.293 570.73 341.12C571.136 340.947 571.61 340.86 572.15 340.86C572.65 340.86 573.11 340.933 573.53 341.08C573.95 341.22 574.303 341.43 574.59 341.71L574.25 342.5C573.95 342.24 573.63 342.05 573.29 341.93C572.95 341.803 572.563 341.74 572.13 341.74C571.616 341.74 571.213 341.847 570.92 342.06C570.633 342.273 570.49 342.563 570.49 342.93C570.49 343.223 570.58 343.453 570.76 343.62C570.946 343.787 571.253 343.913 571.68 344L572.77 344.21C573.443 344.35 573.94 344.567 574.26 344.86C574.58 345.147 574.74 345.543 574.74 346.05C574.74 346.457 574.63 346.813 574.41 347.12C574.196 347.427 573.89 347.667 573.49 347.84C573.09 348.007 572.616 348.09 572.07 348.09ZM578.458 348.09C577.644 348.09 577.004 347.86 576.538 347.4C576.071 346.94 575.838 346.303 575.838 345.49C575.838 344.963 575.938 344.503 576.138 344.11C576.344 343.717 576.628 343.413 576.988 343.2C577.354 342.98 577.778 342.87 578.258 342.87C578.731 342.87 579.128 342.97 579.448 343.17C579.768 343.37 580.011 343.653 580.178 344.02C580.344 344.38 580.428 344.807 580.428 345.3V345.62H576.628V345.04H579.738L579.568 345.17C579.568 344.67 579.454 344.283 579.228 344.01C579.008 343.73 578.688 343.59 578.268 343.59C577.801 343.59 577.441 343.753 577.188 344.08C576.934 344.4 576.808 344.843 576.808 345.41V345.51C576.808 346.103 576.951 346.55 577.238 346.85C577.531 347.15 577.944 347.3 578.478 347.3C578.771 347.3 579.044 347.26 579.298 347.18C579.558 347.093 579.804 346.953 580.038 346.76L580.368 347.45C580.134 347.657 579.851 347.817 579.518 347.93C579.184 348.037 578.831 348.09 578.458 348.09ZM581.787 350.16V344.17C581.787 343.977 581.777 343.78 581.757 343.58C581.743 343.373 581.727 343.167 581.707 342.96H582.687L582.787 344.1H582.677C582.783 343.72 582.997 343.42 583.317 343.2C583.643 342.98 584.03 342.87 584.477 342.87C584.923 342.87 585.313 342.977 585.647 343.19C585.98 343.397 586.237 343.693 586.417 344.08C586.603 344.467 586.697 344.933 586.697 345.48C586.697 346.02 586.603 346.487 586.417 346.88C586.237 347.273 585.98 347.573 585.647 347.78C585.313 347.987 584.923 348.09 584.477 348.09C584.037 348.09 583.653 347.983 583.327 347.77C583.007 347.55 582.793 347.253 582.687 346.88H582.797V350.16H581.787ZM584.227 347.3C584.667 347.3 585.017 347.147 585.277 346.84C585.543 346.533 585.677 346.08 585.677 345.48C585.677 344.88 585.543 344.43 585.277 344.13C585.017 343.823 584.667 343.67 584.227 343.67C583.787 343.67 583.433 343.823 583.167 344.13C582.907 344.43 582.777 344.88 582.777 345.48C582.777 346.08 582.907 346.533 583.167 346.84C583.433 347.147 583.787 347.3 584.227 347.3Z" fill="#21334F" fill-opacity="0.5"/>
<path d="M577 326V332" stroke="#D7DBDE"/>
</g>
<g clip-path="url(#clip9_4845_1085)">
<path d="M630.677 344.47C630.677 343.73 630.807 343.09 631.067 342.55C631.327 342.01 631.704 341.593 632.197 341.3C632.697 341.007 633.29 340.86 633.977 340.86C634.657 340.86 635.244 341.007 635.737 341.3C636.23 341.593 636.61 342.01 636.877 342.55C637.15 343.09 637.287 343.727 637.287 344.46C637.287 345.2 637.15 345.843 636.877 346.39C636.61 346.93 636.227 347.35 635.727 347.65C635.234 347.943 634.65 348.09 633.977 348.09C633.29 348.09 632.7 347.943 632.207 347.65C631.714 347.35 631.334 346.93 631.067 346.39C630.807 345.843 630.677 345.203 630.677 344.47ZM631.767 344.47C631.767 345.323 631.954 345.99 632.327 346.47C632.7 346.95 633.25 347.19 633.977 347.19C634.684 347.19 635.23 346.953 635.617 346.48C636.004 346 636.197 345.33 636.197 344.47C636.197 343.61 636.004 342.943 635.617 342.47C635.237 341.997 634.69 341.76 633.977 341.76C633.25 341.76 632.7 341.997 632.327 342.47C631.954 342.943 631.767 343.61 631.767 344.47ZM641.03 348.09C640.523 348.09 640.08 347.987 639.7 347.78C639.327 347.567 639.037 347.263 638.83 346.87C638.63 346.47 638.53 345.997 638.53 345.45C638.53 344.91 638.633 344.447 638.84 344.06C639.047 343.673 639.337 343.38 639.71 343.18C640.083 342.973 640.523 342.87 641.03 342.87C641.357 342.87 641.673 342.927 641.98 343.04C642.287 343.147 642.54 343.3 642.74 343.5L642.41 344.21C642.223 344.03 642.013 343.897 641.78 343.81C641.547 343.717 641.32 343.67 641.1 343.67C640.62 343.67 640.243 343.823 639.97 344.13C639.697 344.437 639.56 344.88 639.56 345.46C639.56 346.047 639.697 346.497 639.97 346.81C640.243 347.123 640.62 347.28 641.1 347.28C641.313 347.28 641.537 347.24 641.77 347.16C642.003 347.073 642.217 346.937 642.41 346.75L642.74 347.46C642.533 347.66 642.273 347.817 641.96 347.93C641.653 348.037 641.343 348.09 641.03 348.09ZM645.98 348.09C645.433 348.09 645.02 347.943 644.74 347.65C644.46 347.35 644.32 346.903 644.32 346.31V343.74H643.34V342.96H644.32V341.63L645.33 341.36V342.96H646.73V343.74H645.33V346.22C645.33 346.593 645.397 346.86 645.53 347.02C645.663 347.18 645.857 347.26 646.11 347.26C646.237 347.26 646.347 347.25 646.44 347.23C646.54 347.203 646.63 347.173 646.71 347.14V347.96C646.61 348 646.493 348.03 646.36 348.05C646.227 348.077 646.1 348.09 645.98 348.09Z" fill="#21334F" fill-opacity="0.5"/>
<path d="M639 326V332" stroke="#D7DBDE"/>
</g>
<g clip-path="url(#clip10_4845_1085)">
<path d="M690.833 348V340.95H691.633L695.963 346.63H695.713V340.95H696.683V348H695.893L691.573 342.32H691.803V348H690.833ZM700.603 348.09C700.103 348.09 699.67 347.987 699.303 347.78C698.936 347.567 698.653 347.267 698.453 346.88C698.253 346.487 698.153 346.02 698.153 345.48C698.153 344.94 698.253 344.477 698.453 344.09C698.653 343.697 698.936 343.397 699.303 343.19C699.67 342.977 700.103 342.87 700.603 342.87C701.103 342.87 701.536 342.977 701.903 343.19C702.276 343.397 702.563 343.697 702.763 344.09C702.97 344.477 703.073 344.94 703.073 345.48C703.073 346.02 702.97 346.487 702.763 346.88C702.563 347.267 702.276 347.567 701.903 347.78C701.536 347.987 701.103 348.09 700.603 348.09ZM700.603 347.3C701.043 347.3 701.393 347.147 701.653 346.84C701.913 346.533 702.043 346.08 702.043 345.48C702.043 344.88 701.913 344.43 701.653 344.13C701.393 343.823 701.043 343.67 700.603 343.67C700.17 343.67 699.823 343.823 699.563 344.13C699.303 344.43 699.173 344.88 699.173 345.48C699.173 346.08 699.3 346.533 699.553 346.84C699.813 347.147 700.163 347.3 700.603 347.3ZM705.846 348L703.686 342.96H704.766L706.466 347.17H706.176L707.906 342.96H708.936L706.766 348H705.846Z" fill="#21334F" fill-opacity="0.5"/>
<path d="M701 326V332" stroke="#D7DBDE"/>
</g>
<g clip-path="url(#clip11_4845_1085)">
<path d="M753.136 348V340.95H755.576C756.369 340.95 757.039 341.087 757.586 341.36C758.139 341.633 758.556 342.033 758.836 342.56C759.123 343.08 759.266 343.717 759.266 344.47C759.266 345.217 759.123 345.853 758.836 346.38C758.556 346.907 758.139 347.31 757.586 347.59C757.039 347.863 756.369 348 755.576 348H753.136ZM754.176 347.13H755.516C756.423 347.13 757.096 346.91 757.536 346.47C757.983 346.03 758.206 345.363 758.206 344.47C758.206 343.577 757.983 342.913 757.536 342.48C757.096 342.04 756.423 341.82 755.516 341.82H754.176V347.13ZM763.115 348.09C762.302 348.09 761.662 347.86 761.195 347.4C760.728 346.94 760.495 346.303 760.495 345.49C760.495 344.963 760.595 344.503 760.795 344.11C761.002 343.717 761.285 343.413 761.645 343.2C762.012 342.98 762.435 342.87 762.915 342.87C763.388 342.87 763.785 342.97 764.105 343.17C764.425 343.37 764.668 343.653 764.835 344.02C765.002 344.38 765.085 344.807 765.085 345.3V345.62H761.285V345.04H764.395L764.225 345.17C764.225 344.67 764.112 344.283 763.885 344.01C763.665 343.73 763.345 343.59 762.925 343.59C762.458 343.59 762.098 343.753 761.845 344.08C761.592 344.4 761.465 344.843 761.465 345.41V345.51C761.465 346.103 761.608 346.55 761.895 346.85C762.188 347.15 762.602 347.3 763.135 347.3C763.428 347.3 763.702 347.26 763.955 347.18C764.215 347.093 764.462 346.953 764.695 346.76L765.025 347.45C764.792 347.657 764.508 347.817 764.175 347.93C763.842 348.037 763.488 348.09 763.115 348.09ZM768.654 348.09C768.147 348.09 767.704 347.987 767.324 347.78C766.951 347.567 766.661 347.263 766.454 346.87C766.254 346.47 766.154 345.997 766.154 345.45C766.154 344.91 766.257 344.447 766.464 344.06C766.671 343.673 766.961 343.38 767.334 343.18C767.707 342.973 768.147 342.87 768.654 342.87C768.981 342.87 769.297 342.927 769.604 343.04C769.911 343.147 770.164 343.3 770.364 343.5L770.034 344.21C769.847 344.03 769.637 343.897 769.404 343.81C769.171 343.717 768.944 343.67 768.724 343.67C768.244 343.67 767.867 343.823 767.594 344.13C767.321 344.437 767.184 344.88 767.184 345.46C767.184 346.047 767.321 346.497 767.594 346.81C767.867 347.123 768.244 347.28 768.724 347.28C768.937 347.28 769.161 347.24 769.394 347.16C769.627 347.073 769.841 346.937 770.034 346.75L770.364 347.46C770.157 347.66 769.897 347.817 769.584 347.93C769.277 348.037 768.967 348.09 768.654 348.09Z" fill="#21334F" fill-opacity="0.5"/>
<path d="M762 326V332" stroke="#D7DBDE"/>
</g>
<defs>
<linearGradient id="paint0_linear_4845_1085" x1="424.5" y1="130" x2="424.5" y2="325.5" gradientUnits="userSpaceOnUse">
<stop stop-color="#3538CD"/>
<stop offset="1" stop-color="#4361EE" stop-opacity="0.05"/>
</linearGradient>
<linearGradient id="paint1_linear_4845_1085" x1="12.5" y1="0" x2="12.5" y2="24" gradientUnits="userSpaceOnUse">
<stop stop-color="white"/>
<stop offset="1" stop-color="white" stop-opacity="0"/>
</linearGradient>
<clipPath id="clip0_4845_1085">
<rect width="25" height="24" fill="white" transform="translate(74 326)"/>
</clipPath>
<clipPath id="clip1_4845_1085">
<rect width="28" height="24" fill="white" transform="translate(134 326)"/>
</clipPath>
<clipPath id="clip2_4845_1085">
<rect width="28" height="24" fill="white" transform="translate(196 326)"/>
</clipPath>
<clipPath id="clip3_4845_1085">
<rect width="28" height="25" fill="white" transform="translate(256 326)"/>
</clipPath>
<clipPath id="clip4_4845_1085">
<rect width="31" height="25" fill="white" transform="translate(317 326)"/>
</clipPath>
<clipPath id="clip5_4845_1085">
<rect width="25" height="24" fill="white" transform="translate(381 326)"/>
</clipPath>
<clipPath id="clip6_4845_1085">
<rect width="28" height="25" fill="white" transform="translate(441 326)"/>
</clipPath>
<clipPath id="clip7_4845_1085">
<rect width="29" height="25" fill="white" transform="translate(502 326)"/>
</clipPath>
<clipPath id="clip8_4845_1085">
<rect width="28" height="25" fill="white" transform="translate(564 326)"/>
</clipPath>
<clipPath id="clip9_4845_1085">
<rect width="27" height="24" fill="white" transform="translate(625 326)"/>
</clipPath>
<clipPath id="clip10_4845_1085">
<rect width="29" height="24" fill="white" transform="translate(685 326)"/>
</clipPath>
<clipPath id="clip11_4845_1085">
<rect width="29" height="24" fill="white" transform="translate(747 326)"/>
</clipPath>
</defs>
</svg>
