<svg width="20" height="20" viewBox="0 0 20 20" fill="none" xmlns="http://www.w3.org/2000/svg">
<path d="M13.0917 6.90828C13.0142 6.83017 12.922 6.76818 12.8205 6.72587C12.7189 6.68356 12.61 6.66178 12.5 6.66178C12.39 6.66178 12.2811 6.68356 12.1795 6.72587C12.078 6.76818 11.9858 6.83017 11.9083 6.90828L10 8.82494L8.09167 6.90828C7.93475 6.75136 7.72192 6.6632 7.5 6.6632C7.27809 6.6632 7.06526 6.75136 6.90834 6.90828C6.75142 7.0652 6.66326 7.27803 6.66326 7.49994C6.66326 7.72186 6.75142 7.93469 6.90834 8.09161L8.82501 9.99994L6.90834 11.9083C6.83023 11.9857 6.76824 12.0779 6.72593 12.1795C6.68362 12.281 6.66184 12.3899 6.66184 12.4999C6.66184 12.61 6.68362 12.7189 6.72593 12.8204C6.76824 12.922 6.83023 13.0141 6.90834 13.0916C6.98581 13.1697 7.07797 13.2317 7.17952 13.274C7.28107 13.3163 7.39 13.3381 7.5 13.3381C7.61001 13.3381 7.71894 13.3163 7.82049 13.274C7.92203 13.2317 8.0142 13.1697 8.09167 13.0916L10 11.1749L11.9083 13.0916C11.9858 13.1697 12.078 13.2317 12.1795 13.274C12.2811 13.3163 12.39 13.3381 12.5 13.3381C12.61 13.3381 12.7189 13.3163 12.8205 13.274C12.922 13.2317 13.0142 13.1697 13.0917 13.0916C13.1698 13.0141 13.2318 12.922 13.2741 12.8204C13.3164 12.7189 13.3382 12.61 13.3382 12.4999C13.3382 12.3899 13.3164 12.281 13.2741 12.1795C13.2318 12.0779 13.1698 11.9857 13.0917 11.9083L11.175 9.99994L13.0917 8.09161C13.1698 8.01414 13.2318 7.92197 13.2741 7.82042C13.3164 7.71887 13.3382 7.60995 13.3382 7.49994C13.3382 7.38993 13.3164 7.28101 13.2741 7.17946C13.2318 7.07791 13.1698 6.98575 13.0917 6.90828ZM15.8917 4.10828C15.1229 3.31236 14.2034 2.67751 13.1867 2.24077C12.17 1.80402 11.0765 1.57414 9.97001 1.56452C8.86352 1.55491 7.76619 1.76576 6.74205 2.18476C5.71792 2.60377 4.78749 3.22255 4.00505 4.00499C3.22261 4.78743 2.60383 5.71786 2.18482 6.74199C1.76582 7.76613 1.55497 8.86346 1.56458 9.96995C1.5742 11.0764 1.80409 12.1699 2.24083 13.1866C2.67757 14.2033 3.31242 15.1229 4.10834 15.8916C4.87706 16.6875 5.7966 17.3224 6.8133 17.7591C7.83 18.1959 8.9235 18.4258 10.03 18.4354C11.1365 18.445 12.2338 18.2341 13.258 17.8151C14.2821 17.3961 15.2125 16.7773 15.995 15.9949C16.7774 15.2125 17.3962 14.282 17.8152 13.2579C18.2342 12.2338 18.445 11.1364 18.4354 10.0299C18.4258 8.92344 18.1959 7.82994 17.7592 6.81324C17.3224 5.79654 16.6876 4.877 15.8917 4.10828ZM14.7167 14.7166C13.6267 15.8078 12.1921 16.4873 10.6573 16.6394C9.12255 16.7914 7.58251 16.4067 6.29961 15.5506C5.0167 14.6945 4.0703 13.4201 3.62165 11.9445C3.17299 10.4689 3.24984 8.88339 3.8391 7.4581C4.42836 6.0328 5.49357 4.8559 6.85325 4.12791C8.21293 3.39992 9.78296 3.16589 11.2958 3.46567C12.8087 3.76546 14.1709 4.58052 15.1502 5.77199C16.1295 6.96347 16.6655 8.45764 16.6667 9.99994C16.6696 10.876 16.4988 11.744 16.1641 12.5536C15.8294 13.3632 15.3374 14.0984 14.7167 14.7166Z" fill="#98A2B3"/>
</svg>
