<svg width="21" height="20" viewBox="0 0 21 20" fill="none" xmlns="http://www.w3.org/2000/svg">
<g clip-path="url(#clip0_8283_353)">
<path d="M16.625 8.36634C16.0583 5.49134 13.5333 3.33301 10.5 3.33301C8.09167 3.33301 6 4.69967 4.95833 6.69967C2.45 6.96634 0.5 9.09134 0.5 11.6663C0.5 14.4247 2.74167 16.6663 5.5 16.6663H16.3333C18.6333 16.6663 20.5 14.7997 20.5 12.4997C20.5 10.2997 18.7917 8.51634 16.625 8.36634ZM16.3333 14.9997H5.5C3.65833 14.9997 2.16667 13.508 2.16667 11.6663C2.16667 9.95801 3.44167 8.53301 5.13333 8.35801L6.025 8.26634L6.44167 7.47467C7.23333 5.94967 8.78333 4.99967 10.5 4.99967C12.6833 4.99967 14.5667 6.54967 14.9917 8.69134L15.2417 9.94134L16.5167 10.033C17.8167 10.1163 18.8333 11.208 18.8333 12.4997C18.8333 13.8747 17.7083 14.9997 16.3333 14.9997ZM11.7083 8.33301H9.29167V10.833H7.16667L10.5 14.1663L13.8333 10.833H11.7083V8.33301Z" fill="#667085"/>
</g>
<defs>
<clipPath id="clip0_8283_353">
<rect width="20" height="20" fill="white" transform="translate(0.5)"/>
</clipPath>
</defs>
</svg>
