<svg width="20" height="20" viewBox="0 0 20 20" fill="none" xmlns="http://www.w3.org/2000/svg">
<path opacity="0.01" d="M0 0H20V20H0" fill="white"/>
<path d="M14.5833 11.6667C14.085 13.4002 12.618 14.6813 10.8333 14.9417C9.45256 15.142 8.04985 14.7708 6.949 13.9137C5.84814 13.0566 5.14429 11.7877 4.99994 10.4001C4.88806 9.00615 5.36503 7.62909 6.31511 6.603C7.26519 5.57691 8.60156 4.99558 9.99994 5.00006C10.6481 5.00098 11.2901 5.12542 11.8916 5.36673C12.0879 5.45486 12.319 5.37902 12.4249 5.19173L13.6249 2.9834C13.6771 2.88067 13.6862 2.76139 13.6503 2.65193C13.6143 2.54247 13.5362 2.45183 13.4333 2.40006C10.8137 1.21403 7.7677 1.46236 5.37482 3.05706C2.98193 4.65175 1.58029 7.36745 1.66661 10.2417C1.8368 14.5936 5.29271 18.1 9.64161 18.3334C14.2176 18.5363 18.0996 15.0079 18.3333 10.4334V8.76673C18.3288 8.53847 18.1449 8.3545 17.9166 8.35006H10.4166C10.1865 8.35006 9.99994 8.53661 9.99994 8.76673V11.2667C9.99994 11.4969 10.1865 11.6834 10.4166 11.6834H14.5833" fill="white"/>
</svg>
