<svg width="70" height="70" viewBox="0 0 70 70" fill="none" xmlns="http://www.w3.org/2000/svg">
<g clip-path="url(#clip0_4869_2563)">
<circle cx="35" cy="35" r="35" fill="#F2F4F7"/>
<path d="M37.2647 38.9372L35.5474 37.2342C34.758 36.4514 34.3634 36.0601 33.909 35.9133C33.5093 35.7841 33.079 35.7841 32.6793 35.9133C32.2249 36.0601 31.8302 36.4514 31.0409 37.2342L27.042 41.2618M37.2647 38.9372L37.6061 38.5987C38.412 37.7995 38.815 37.3999 39.2773 37.2541C39.6839 37.1258 40.1209 37.1308 40.5244 37.2684C40.9833 37.4248 41.377 37.8336 42.1643 38.6511L43 39.4997M37.2647 38.9372L41.2201 42.9624M30.201 27H39.801C40.9211 27 41.4811 27 41.909 27.218C42.2853 27.4097 42.5912 27.7157 42.783 28.092C43.001 28.5198 43.001 29.0799 43.001 30.2V39.8C43.001 40.9201 43.001 41.4802 42.783 41.908C42.5912 42.2843 42.2853 42.5903 41.909 42.782C41.4811 43 40.9211 43 39.801 43H30.201C29.0809 43 28.5208 43 28.093 42.782C27.7167 42.5903 27.4107 42.2843 27.219 41.908C27.001 41.4802 27.001 40.9201 27.001 39.8V30.2C27.001 29.0799 27.001 28.5198 27.219 28.092C27.4107 27.7157 27.7167 27.4097 28.093 27.218C28.5208 27 29.0809 27 30.201 27ZM40.001 32C40.001 33.1046 39.1055 34 38.001 34C36.8964 34 36.001 33.1046 36.001 32C36.001 30.8954 36.8964 30 38.001 30C39.1055 30 40.001 30.8954 40.001 32Z" stroke="#667085" stroke-width="2" stroke-linecap="round" stroke-linejoin="round"/>
</g>
<defs>
<clipPath id="clip0_4869_2563">
<rect width="70" height="70" fill="white"/>
</clipPath>
</defs>
</svg>
