<svg width="24" height="24" viewBox="0 0 24 24" fill="none" xmlns="http://www.w3.org/2000/svg">
<rect opacity="0.01" x="24" y="24" width="24" height="24" transform="rotate(180 24 24)" fill="white"/>
<path d="M15.15 8.39994C13.6021 8.39462 12.1156 9.00514 11.0182 10.0969C9.92084 11.1886 9.30269 12.672 9.30005 14.2199V20.0999C9.30005 20.3386 9.39487 20.5675 9.56365 20.7363C9.73244 20.9051 9.96135 20.9999 10.2 20.9999H12.3C12.7971 20.9999 13.2 20.597 13.2 20.0999V14.2199C13.1997 13.6686 13.4338 13.1432 13.8441 12.7749C14.2544 12.4066 14.802 12.2303 15.35 12.2899C16.356 12.4166 17.108 13.2761 17.1 14.2899V20.0999C17.1 20.597 17.503 20.9999 18 20.9999H20.1C20.5971 20.9999 21 20.597 21 20.0999V14.2199C20.9974 12.672 20.3793 11.1886 19.2819 10.0969C18.1845 9.00514 16.698 8.39462 15.15 8.39994Z" fill="white"/>
<rect x="3" y="9.2998" width="4.5" height="11.7" rx="0.9" fill="white"/>
<circle cx="5.25" cy="5.25" r="2.25" fill="white"/>
</svg>
