<svg width="40" height="40" viewBox="0 0 40 40" fill="none" xmlns="http://www.w3.org/2000/svg">
<g clip-path="url(#clip0_4847_1303)">
<circle cx="20" cy="20" r="20" fill="#3538CD"/>
<path d="M26.1771 14C25.7619 14.3665 25.5 14.9027 25.5 15.5C25.5 16.6046 26.3954 17.5 27.5 17.5C27.6726 17.5 28.5 17.5 29 17M14 26C14.781 25.219 14.781 23.781 14 23C13.219 22.219 11.781 22.219 11 23M14 14C14.781 14.781 14.781 16.219 14 17C13.219 17.781 11.781 17.781 11 17M26 26C25.219 25.219 25.219 23.781 26 23C26.781 22.219 28.219 22.219 29 23M14.2 26H25.8C26.9201 26 27.4802 26 27.908 25.782C28.2843 25.5903 28.5903 25.2843 28.782 24.908C29 24.4802 29 23.9201 29 22.8V17.2C29 16.0799 29 15.5198 28.782 15.092C28.5903 14.7157 28.2843 14.4097 27.908 14.218C27.4802 14 26.9201 14 25.8 14H14.2C13.0799 14 12.5198 14 12.092 14.218C11.7157 14.4097 11.4097 14.7157 11.218 15.092C11 15.5198 11 16.0799 11 17.2V22.8C11 23.9201 11 24.4802 11.218 24.908C11.4097 25.2843 11.7157 25.5903 12.092 25.782C12.5198 26 13.0799 26 14.2 26ZM22 20C22 21.1046 21.1046 22 20 22C18.8954 22 18 21.1046 18 20C18 18.8954 18.8954 18 20 18C21.1046 18 22 18.8954 22 20Z" stroke="white" stroke-width="1.6" stroke-linecap="round" stroke-linejoin="round"/>
</g>
<defs>
<clipPath id="clip0_4847_1303">
<rect width="40" height="40" fill="white"/>
</clipPath>
</defs>
</svg>
