<svg width="64" height="64" viewBox="0 0 64 64" fill="none" xmlns="http://www.w3.org/2000/svg">
<g clip-path="url(#clip0_4505_934)">
<circle cx="32" cy="32" r="32" fill="#3538CD"/>
<path d="M42.2951 22C41.6031 22.6108 41.1667 23.5044 41.1667 24.5C41.1667 26.3409 42.6591 27.8333 44.5 27.8333C44.7877 27.8333 46.1667 27.8333 46.9999 27M22 42C23.3017 40.6983 23.3017 38.3017 22 37C20.6983 35.6983 18.3017 35.6983 17 37M22 22C23.3017 23.3017 23.3017 25.6983 22 27C20.6983 28.3017 18.3017 28.3017 17 27M42 42C40.6983 40.6983 40.6983 38.3017 42 37C43.3017 35.6983 45.6983 35.6983 47 37M22.3333 42H41.6667C43.5335 42 44.4669 42 45.18 41.6367C45.8072 41.3171 46.3171 40.8072 46.6367 40.18C47 39.4669 47 38.5335 47 36.6667V27.3333C47 25.4665 47 24.5331 46.6367 23.82C46.3171 23.1928 45.8072 22.6829 45.18 22.3633C44.4669 22 43.5335 22 41.6667 22H22.3333C20.4665 22 19.5331 22 18.82 22.3633C18.1928 22.6829 17.6829 23.1928 17.3633 23.82C17 24.5331 17 25.4665 17 27.3333V36.6667C17 38.5335 17 39.4669 17.3633 40.18C17.6829 40.8072 18.1928 41.3171 18.82 41.6367C19.5331 42 20.4665 42 22.3333 42ZM35.3333 32C35.3333 33.8409 33.8409 35.3333 32 35.3333C30.1591 35.3333 28.6667 33.8409 28.6667 32C28.6667 30.1591 30.1591 28.6667 32 28.6667C33.8409 28.6667 35.3333 30.1591 35.3333 32Z" stroke="white" stroke-width="2.5" stroke-linecap="round" stroke-linejoin="round"/>
</g>
<defs>
<clipPath id="clip0_4505_934">
<rect width="64" height="64" fill="white"/>
</clipPath>
</defs>
</svg>
