<svg width="24" height="24" viewBox="0 0 24 24" fill="none" xmlns="http://www.w3.org/2000/svg">
<mask id="path-1-inside-1_4541_393" fill="white">
<path d="M18.9037 15.7496L17.5162 13.9233C17.4919 13.8909 17.4787 13.8514 17.4787 13.8108V8.65456C17.495 7.21218 16.9564 5.81869 15.9745 4.76205C14.9925 3.70542 13.6422 3.0664 12.2025 2.97706C11.4513 2.93838 10.7001 3.053 9.9947 3.31393C9.28926 3.57486 8.64431 3.97665 8.09912 4.49482C7.55394 5.01299 7.11992 5.63671 6.82351 6.32799C6.5271 7.01928 6.37448 7.76366 6.37497 8.51581V14.0021C6.37497 14.0426 6.36181 14.0821 6.33747 14.1146L5.10747 15.7496C4.88741 15.9912 4.74225 16.2915 4.68962 16.6141C4.637 16.9367 4.67917 17.2676 4.81102 17.5666C4.94288 17.8656 5.15873 18.12 5.43237 18.2987C5.706 18.4774 6.02565 18.5728 6.35247 18.5733H17.6475C17.9753 18.575 18.2964 18.4812 18.5718 18.3033C18.8471 18.1254 19.0647 17.8712 19.1979 17.5718C19.3311 17.2723 19.3743 16.9405 19.322 16.6169C19.2698 16.2933 19.1244 15.9919 18.9037 15.7496ZM18.1537 17.0996C18.1113 17.2005 18.0398 17.2865 17.9483 17.3466C17.8568 17.4067 17.7494 17.4382 17.64 17.4371H6.35247C6.24478 17.4351 6.13992 17.4022 6.05037 17.3423C5.96081 17.2825 5.89032 17.1982 5.84728 17.0995C5.80423 17.0007 5.79043 16.8917 5.80753 16.7854C5.82463 16.679 5.8719 16.5798 5.94372 16.4996L5.98497 16.4508L7.24872 14.7858C7.41386 14.558 7.50189 14.2834 7.49997 14.0021V8.51581C7.49997 7.93443 7.61472 7.35877 7.83766 6.82183C8.0606 6.2849 8.38733 5.79725 8.79913 5.38685C9.21092 4.97645 9.69967 4.65137 10.2374 4.43026C10.775 4.20914 11.3511 4.09634 11.9325 4.09831H12.15C13.3012 4.17414 14.3792 4.6892 15.1616 5.53711C15.9439 6.38502 16.3706 7.50101 16.3537 8.65456V13.8296C16.3537 14.1165 16.4472 14.3955 16.62 14.6246L18.0225 16.4696L18.06 16.5108C18.1354 16.5905 18.1853 16.6909 18.2033 16.7991C18.2214 16.9073 18.2067 17.0185 18.1612 17.1183L18.1537 17.0996ZM14.22 20.0283C13.9385 20.3438 13.5936 20.5962 13.2078 20.7691C12.822 20.942 12.404 21.0313 11.9812 21.0313C11.5585 21.0313 11.1405 20.942 10.7546 20.7691C10.3688 20.5962 10.0239 20.3438 9.74247 20.0283C9.65245 19.9161 9.60883 19.7737 9.62058 19.6303C9.63233 19.487 9.69855 19.3536 9.80564 19.2575C9.91272 19.1615 10.0525 19.1101 10.1963 19.114C10.3401 19.1179 10.477 19.1767 10.5787 19.2783C10.7546 19.476 10.9704 19.6341 11.2118 19.7425C11.4532 19.8508 11.7148 19.9068 11.9793 19.9068C12.2439 19.9068 12.5055 19.8508 12.7469 19.7425C12.9883 19.6341 13.2041 19.476 13.38 19.2783C13.4817 19.1767 13.6186 19.1179 13.7624 19.114C13.9062 19.1101 14.046 19.1615 14.1531 19.2575C14.2601 19.3536 14.3264 19.487 14.3381 19.6303C14.3499 19.7737 14.3062 19.9161 14.2162 20.0283H14.22Z"/>
</mask>
<path d="M18.9037 15.7496L17.5162 13.9233C17.4919 13.8909 17.4787 13.8514 17.4787 13.8108V8.65456C17.495 7.21218 16.9564 5.81869 15.9745 4.76205C14.9925 3.70542 13.6422 3.0664 12.2025 2.97706C11.4513 2.93838 10.7001 3.053 9.9947 3.31393C9.28926 3.57486 8.64431 3.97665 8.09912 4.49482C7.55394 5.01299 7.11992 5.63671 6.82351 6.32799C6.5271 7.01928 6.37448 7.76366 6.37497 8.51581V14.0021C6.37497 14.0426 6.36181 14.0821 6.33747 14.1146L5.10747 15.7496C4.88741 15.9912 4.74225 16.2915 4.68962 16.6141C4.637 16.9367 4.67917 17.2676 4.81102 17.5666C4.94288 17.8656 5.15873 18.12 5.43237 18.2987C5.706 18.4774 6.02565 18.5728 6.35247 18.5733H17.6475C17.9753 18.575 18.2964 18.4812 18.5718 18.3033C18.8471 18.1254 19.0647 17.8712 19.1979 17.5718C19.3311 17.2723 19.3743 16.9405 19.322 16.6169C19.2698 16.2933 19.1244 15.9919 18.9037 15.7496ZM18.1537 17.0996C18.1113 17.2005 18.0398 17.2865 17.9483 17.3466C17.8568 17.4067 17.7494 17.4382 17.64 17.4371H6.35247C6.24478 17.4351 6.13992 17.4022 6.05037 17.3423C5.96081 17.2825 5.89032 17.1982 5.84728 17.0995C5.80423 17.0007 5.79043 16.8917 5.80753 16.7854C5.82463 16.679 5.8719 16.5798 5.94372 16.4996L5.98497 16.4508L7.24872 14.7858C7.41386 14.558 7.50189 14.2834 7.49997 14.0021V8.51581C7.49997 7.93443 7.61472 7.35877 7.83766 6.82183C8.0606 6.2849 8.38733 5.79725 8.79913 5.38685C9.21092 4.97645 9.69967 4.65137 10.2374 4.43026C10.775 4.20914 11.3511 4.09634 11.9325 4.09831H12.15C13.3012 4.17414 14.3792 4.6892 15.1616 5.53711C15.9439 6.38502 16.3706 7.50101 16.3537 8.65456V13.8296C16.3537 14.1165 16.4472 14.3955 16.62 14.6246L18.0225 16.4696L18.06 16.5108C18.1354 16.5905 18.1853 16.6909 18.2033 16.7991C18.2214 16.9073 18.2067 17.0185 18.1612 17.1183L18.1537 17.0996ZM14.22 20.0283C13.9385 20.3438 13.5936 20.5962 13.2078 20.7691C12.822 20.942 12.404 21.0313 11.9812 21.0313C11.5585 21.0313 11.1405 20.942 10.7546 20.7691C10.3688 20.5962 10.0239 20.3438 9.74247 20.0283C9.65245 19.9161 9.60883 19.7737 9.62058 19.6303C9.63233 19.487 9.69855 19.3536 9.80564 19.2575C9.91272 19.1615 10.0525 19.1101 10.1963 19.114C10.3401 19.1179 10.477 19.1767 10.5787 19.2783C10.7546 19.476 10.9704 19.6341 11.2118 19.7425C11.4532 19.8508 11.7148 19.9068 11.9793 19.9068C12.2439 19.9068 12.5055 19.8508 12.7469 19.7425C12.9883 19.6341 13.2041 19.476 13.38 19.2783C13.4817 19.1767 13.6186 19.1179 13.7624 19.114C13.9062 19.1101 14.046 19.1615 14.1531 19.2575C14.2601 19.3536 14.3264 19.487 14.3381 19.6303C14.3499 19.7737 14.3062 19.9161 14.2162 20.0283H14.22Z" fill="black"/>
<path d="M17.5162 13.9233L15.1162 15.7233L15.1218 15.7308L15.1275 15.7382L17.5162 13.9233ZM17.4787 8.65456L14.4789 8.6208L14.4787 8.63768V8.65456H17.4787ZM12.2025 2.97706L12.3883 -0.0171809L12.3725 -0.0181596L12.3567 -0.0189719L12.2025 2.97706ZM6.37497 8.51581H9.37497L9.37497 8.51387L6.37497 8.51581ZM6.33747 14.1146L8.73483 15.9181L8.73747 15.9146L6.33747 14.1146ZM5.10747 15.7496L7.32548 17.7696L7.42023 17.6655L7.50483 17.5531L5.10747 15.7496ZM6.35247 18.5733L6.34779 21.5733H6.35247V18.5733ZM17.6475 18.5733L17.6628 15.5733L17.6551 15.5733H17.6475V18.5733ZM18.1537 17.0996L20.9392 15.9854L18.2235 9.19589L15.3884 15.9365L18.1537 17.0996ZM17.64 17.4371L17.6705 14.4372L17.6553 14.4371H17.64V17.4371ZM6.35247 17.4371L6.29686 20.4365L6.32467 20.4371H6.35247V17.4371ZM5.94372 16.4996L8.17933 18.5001L8.20704 18.4691L8.23389 18.4374L5.94372 16.4996ZM5.98497 16.4508L8.27514 18.3886L8.32651 18.3279L8.3746 18.2646L5.98497 16.4508ZM7.24872 14.7858L9.63835 16.5996L9.65828 16.5733L9.67763 16.5466L7.24872 14.7858ZM7.49997 14.0021H4.49997V14.0123L4.50004 14.0225L7.49997 14.0021ZM7.49997 8.51581L10.5 8.51581V8.51579L7.49997 8.51581ZM11.9325 4.09831L11.9223 7.09831H11.9325V4.09831ZM12.15 4.09831L12.3471 1.1048L12.2487 1.09831H12.15V4.09831ZM16.3537 8.65456L13.354 8.61057L13.3537 8.63256V8.65456H16.3537ZM16.3537 13.8296L19.3537 13.8296V13.8296H16.3537ZM16.62 14.6246L14.2251 16.4314L14.2317 16.4401L16.62 14.6246ZM18.0225 16.4696L15.6342 18.2851L15.714 18.39L15.8026 18.4876L18.0225 16.4696ZM18.06 16.5108L15.8401 18.5288L15.8604 18.5511L15.8811 18.5729L18.06 16.5108ZM18.1612 17.1183L15.3758 18.2324L17.9816 24.7473L20.8911 18.3623L18.1612 17.1183ZM14.22 20.0283L16.4587 22.0253L20.9161 17.0283H14.22V20.0283ZM9.74247 20.0283L7.40256 21.9058L7.45158 21.9669L7.50372 22.0253L9.74247 20.0283ZM10.5787 19.2783L12.8197 17.2838L12.7611 17.218L12.6988 17.1558L10.5787 19.2783ZM11.9793 19.9068V22.9068V19.9068ZM13.38 19.2783L11.2599 17.1558L11.1975 17.218L11.139 17.2838L13.38 19.2783ZM14.2162 20.0283L11.8763 18.1509L7.96285 23.0283H14.2162V20.0283ZM21.2925 13.9347L19.905 12.1084L15.1275 15.7382L16.515 17.5644L21.2925 13.9347ZM19.9162 12.1233C20.2814 12.6102 20.4787 13.2023 20.4787 13.8108H14.4787C14.4787 14.5005 14.7024 15.1715 15.1162 15.7233L19.9162 12.1233ZM20.4787 13.8108V8.65456H14.4787V13.8108H20.4787ZM20.4785 8.68832C20.5034 6.47667 19.6777 4.33998 18.172 2.71981L13.7769 6.8043C14.2352 7.29739 14.4865 7.94769 14.4789 8.6208L20.4785 8.68832ZM18.172 2.71981C16.6664 1.09963 14.5958 0.11981 12.3883 -0.0171809L12.0167 5.9713C12.6885 6.01299 13.3187 6.3112 13.7769 6.8043L18.172 2.71981ZM12.3567 -0.0189719C11.199 -0.0785828 10.0412 0.0980732 8.95396 0.50024L11.0354 6.12762C11.359 6.00793 11.7036 5.95535 12.0482 5.97309L12.3567 -0.0189719ZM8.95396 0.50024C7.86669 0.902406 6.87264 1.52167 6.03236 2.32031L10.1659 6.66933C10.416 6.43163 10.7118 6.24732 11.0354 6.12762L8.95396 0.50024ZM6.03236 2.32031C5.19208 3.11896 4.52315 4.08028 4.06629 5.14573L9.58073 7.51026C9.7167 7.19315 9.9158 6.90703 10.1659 6.66933L6.03236 2.32031ZM4.06629 5.14573C3.60944 6.21118 3.37422 7.35848 3.37497 8.51775L9.37497 8.51387C9.37475 8.16884 9.44475 7.82737 9.58073 7.51026L4.06629 5.14573ZM3.37497 8.51581V14.0021H9.37497V8.51581H3.37497ZM3.37497 14.0021C3.37497 13.3935 3.57235 12.8014 3.93747 12.3146L8.73747 15.9146C9.15127 15.3628 9.37497 14.6918 9.37497 14.0021H3.37497ZM3.94011 12.311L2.71011 13.946L7.50483 17.5531L8.73483 15.9181L3.94011 12.311ZM2.88946 13.7296C2.27817 14.4008 1.87495 15.235 1.72877 16.131L7.65048 17.0971C7.60955 17.348 7.49665 17.5816 7.32548 17.7696L2.88946 13.7296ZM1.72877 16.131C1.58259 17.027 1.69974 17.9462 2.06599 18.7769L7.55605 16.3563C7.6586 16.5889 7.69141 16.8463 7.65048 17.0971L1.72877 16.131ZM2.06599 18.7769C2.43225 19.6076 3.03184 20.314 3.79194 20.8105L7.07279 15.7869C7.28562 15.9259 7.4535 16.1237 7.55605 16.3563L2.06599 18.7769ZM3.79194 20.8105C4.55205 21.3069 5.43995 21.5719 6.34779 21.5733L6.35715 15.5733C6.61134 15.5737 6.85996 15.6479 7.07279 15.7869L3.79194 20.8105ZM6.35247 21.5733H17.6475V15.5733H6.35247V21.5733ZM17.6321 21.5733C18.5426 21.5779 19.4348 21.3173 20.1996 20.8233L16.9439 15.7834C17.1581 15.645 17.4079 15.572 17.6628 15.5733L17.6321 21.5733ZM20.1996 20.8233C20.9644 20.3292 21.5688 19.6231 21.9389 18.7912L16.4569 16.3523C16.5606 16.1194 16.7298 15.9217 16.9439 15.7834L20.1996 20.8233ZM21.9389 18.7912C22.309 17.9593 22.4288 17.0376 22.2837 16.1387L16.3604 17.095C16.3197 16.8433 16.3533 16.5853 16.4569 16.3523L21.9389 18.7912ZM22.2837 16.1387C22.1386 15.2398 21.7348 14.4027 21.1217 13.7295L16.6857 17.7696C16.5141 17.5811 16.401 17.3467 16.3604 17.095L22.2837 16.1387ZM15.3884 15.9365C15.5769 15.4882 15.8946 15.1062 16.3011 14.8392L19.5954 19.8539C20.1849 19.4667 20.6457 18.9127 20.9191 18.2627L15.3884 15.9365ZM16.3011 14.8392C16.7075 14.5722 17.1843 14.4323 17.6705 14.4372L17.6094 20.4369C18.3146 20.4441 19.006 20.2411 19.5954 19.8539L16.3011 14.8392ZM17.64 14.4371H6.35247V20.4371H17.64V14.4371ZM6.40808 14.4376C6.87475 14.4462 7.32912 14.5887 7.71719 14.848L4.38355 19.8367C4.95073 20.2157 5.6148 20.4239 6.29686 20.4365L6.40808 14.4376ZM7.71719 14.848C8.10525 15.1073 8.41071 15.4726 8.59726 15.9005L3.09729 18.2985C3.36993 18.9238 3.81637 19.4577 4.38355 19.8367L7.71719 14.848ZM8.59726 15.9005C8.7838 16.3283 8.84358 16.8007 8.76949 17.2616L2.84556 16.3092C2.73728 16.9827 2.82465 17.6732 3.09729 18.2985L8.59726 15.9005ZM8.76949 17.2616C8.69541 17.7224 8.49057 18.1523 8.17933 18.5001L3.70811 14.499C3.25322 15.0074 2.95384 15.6357 2.84556 16.3092L8.76949 17.2616ZM8.23389 18.4374L8.27514 18.3886L3.6948 14.513L3.65355 14.5617L8.23389 18.4374ZM8.3746 18.2646L9.63835 16.5996L4.85909 12.9721L3.59534 14.6371L8.3746 18.2646ZM9.67763 16.5466C10.2181 15.8011 10.5062 14.9024 10.4999 13.9816L4.50004 14.0225C4.4976 13.6644 4.60964 13.3149 4.81981 13.025L9.67763 16.5466ZM10.5 14.0021V8.51581H4.49997V14.0021H10.5ZM10.5 8.51579C10.5 8.32924 10.5368 8.14452 10.6083 7.97222L5.06699 5.67144C4.69266 6.57302 4.49997 7.53962 4.49997 8.51583L10.5 8.51579ZM10.6083 7.97222C10.6799 7.79993 10.7847 7.64345 10.9168 7.51176L6.6814 3.26194C5.98995 3.95105 5.44133 4.76987 5.06699 5.67144L10.6083 7.97222ZM10.9168 7.51176C11.049 7.38007 11.2058 7.27576 11.3784 7.20481L9.09637 1.6557C8.19352 2.02698 7.37285 2.57283 6.6814 3.26194L10.9168 7.51176ZM11.3784 7.20481C11.5509 7.13386 11.7357 7.09766 11.9223 7.09829L11.9427 1.09833C10.9665 1.09501 9.99921 1.28442 9.09637 1.6557L11.3784 7.20481ZM11.9325 7.09831H12.15V1.09831H11.9325V7.09831ZM11.9528 7.09182C12.3365 7.1171 12.6959 7.28878 12.9567 7.57142L17.3664 3.5028C16.0626 2.08961 14.2658 1.23117 12.3471 1.1048L11.9528 7.09182ZM12.9567 7.57142C13.2174 7.85406 13.3597 8.22606 13.354 8.61057L19.3534 8.69855C19.3816 6.77596 18.6703 4.91598 17.3664 3.5028L12.9567 7.57142ZM13.3537 8.65456V13.8296H19.3537V8.65456H13.3537ZM13.3537 13.8295C13.3537 14.7685 13.6596 15.6818 14.2251 16.4314L19.0149 12.8178C19.2348 13.1092 19.3537 13.4644 19.3537 13.8296L13.3537 13.8295ZM14.2317 16.4401L15.6342 18.2851L20.4108 14.6541L19.0083 12.8091L14.2317 16.4401ZM15.8026 18.4876L15.8401 18.5288L20.2798 14.4928L20.2423 14.4516L15.8026 18.4876ZM15.8811 18.5729C15.546 18.2189 15.3243 17.773 15.2442 17.2923L21.1625 16.3059C21.0463 15.6087 20.7247 14.9621 20.2389 14.4487L15.8811 18.5729ZM15.2442 17.2923C15.164 16.8116 15.2292 16.3178 15.4313 15.8743L20.8911 18.3623C21.1842 17.7191 21.2787 17.0031 21.1625 16.3059L15.2442 17.2923ZM20.9467 16.0042L20.9392 15.9854L15.3683 18.2137L15.3758 18.2324L20.9467 16.0042ZM11.9812 18.0313L11.9812 18.0313L14.4344 23.5069C15.206 23.1612 15.8959 22.6563 16.4587 22.0253L11.9812 18.0313ZM11.9812 18.0313H11.9812V24.0313C12.8268 24.0313 13.6628 23.8526 14.4344 23.5069L11.9812 18.0313ZM11.9812 18.0313H11.9812L9.52806 23.5069C10.2997 23.8526 11.1357 24.0313 11.9812 24.0313V18.0313ZM11.9812 18.0313L11.9812 18.0313L7.50372 22.0253C8.06657 22.6563 8.75642 23.1612 9.52806 23.5069L11.9812 18.0313ZM12.0824 18.1509C12.4725 18.637 12.6615 19.2542 12.6106 19.8754L6.63061 19.3853C6.5562 20.2933 6.83245 21.1952 7.40256 21.9058L12.0824 18.1509ZM12.6106 19.8754C12.5596 20.4966 12.2727 21.0747 11.8087 21.4909L7.80262 17.0242C7.12443 17.6324 6.70502 18.4774 6.63061 19.3853L12.6106 19.8754ZM11.8087 21.4909C11.3446 21.9071 10.7388 22.1297 10.1157 22.1129L10.2769 16.1151C9.36624 16.0906 8.48081 16.4159 7.80262 17.0242L11.8087 21.4909ZM10.1157 22.1129C9.49263 22.0962 8.89963 21.8413 8.45863 21.4009L12.6988 17.1558C12.0543 16.512 11.1876 16.1395 10.2769 16.1151L10.1157 22.1129ZM8.33772 21.2728C8.79507 21.7867 9.35601 22.1979 9.98364 22.4795L12.4399 17.0054C12.5847 17.0703 12.7142 17.1652 12.8197 17.2838L8.33772 21.2728ZM9.98364 22.4795C10.6113 22.7612 11.2914 22.9068 11.9793 22.9068V16.9068C12.1381 16.9068 12.2951 16.9404 12.4399 17.0054L9.98364 22.4795ZM11.9793 22.9068C12.6673 22.9068 13.3474 22.7612 13.975 22.4795L11.5188 17.0054C11.6636 16.9404 11.8206 16.9068 11.9793 16.9068V22.9068ZM13.975 22.4795C14.6027 22.1979 15.1636 21.7867 15.621 21.2728L11.139 17.2838C11.2445 17.1652 11.374 17.0703 11.5188 17.0054L13.975 22.4795ZM15.5001 21.4009C15.0591 21.8414 14.4661 22.0962 13.843 22.1129L13.6818 16.1151C12.7711 16.1395 11.9044 16.512 11.2599 17.1558L15.5001 21.4009ZM13.843 22.1129C13.2199 22.1297 12.6141 21.9071 12.15 21.4909L16.1561 17.0242C15.4779 16.4159 14.5925 16.0906 13.6818 16.1151L13.843 22.1129ZM12.15 21.4909C11.686 21.0747 11.399 20.4966 11.3481 19.8754L17.3281 19.3853C17.2537 18.4774 16.8343 17.6324 16.1561 17.0242L12.15 21.4909ZM11.3481 19.8754C11.2972 19.2542 11.4862 18.637 11.8763 18.1509L16.5561 21.9058C17.1262 21.1952 17.4025 20.2933 17.3281 19.3853L11.3481 19.8754ZM14.2162 23.0283H14.22V17.0283H14.2162V23.0283Z" fill="black" mask="url(#path-1-inside-1_4541_393)"/>
<circle cx="16" cy="4" r="4" fill="#F71805"/>
</svg>
