<svg width="21" height="20" viewBox="0 0 21 20" fill="none" xmlns="http://www.w3.org/2000/svg">
<path d="M16.2531 13.1254L15.0969 11.6036C15.0766 11.5765 15.0656 11.5436 15.0656 11.5098V7.21295C15.0791 6.01096 14.6304 4.84972 13.8121 3.96919C12.9938 3.08866 11.8685 2.55615 10.6687 2.4817C10.0428 2.44947 9.4168 2.54498 8.82893 2.76242C8.24106 2.97987 7.7036 3.31469 7.24928 3.7465C6.79496 4.17831 6.43328 4.69807 6.18627 5.27414C5.93926 5.85021 5.81208 6.47053 5.81249 7.09732V11.6692C5.81249 11.703 5.80152 11.7359 5.78124 11.7629L4.75624 13.1254C4.57285 13.3268 4.45188 13.5771 4.40803 13.8459C4.36418 14.1147 4.39932 14.3904 4.5092 14.6396C4.61907 14.8889 4.79895 15.1008 5.02698 15.2497C5.25501 15.3986 5.52138 15.4781 5.79374 15.4786H15.2062C15.4794 15.48 15.747 15.4018 15.9765 15.2536C16.2059 15.1053 16.3872 14.8935 16.4983 14.6439C16.6093 14.3944 16.6452 14.1179 16.6017 13.8482C16.5582 13.5785 16.437 13.3274 16.2531 13.1254ZM15.6281 14.2504C15.5927 14.3345 15.5331 14.4062 15.4569 14.4563C15.3806 14.5064 15.2912 14.5326 15.2 14.5317H5.79374C5.70399 14.53 5.61661 14.5026 5.54198 14.4528C5.46735 14.4029 5.40861 14.3326 5.37274 14.2504C5.33687 14.1681 5.32537 14.0772 5.33962 13.9886C5.35386 13.9 5.39326 13.8173 5.45311 13.7504L5.48749 13.7098L6.54061 12.3223C6.67823 12.1325 6.75158 11.9037 6.74999 11.6692V7.09732C6.74998 6.61284 6.84561 6.13312 7.0314 5.68567C7.21718 5.23823 7.48945 4.83185 7.83261 4.48986C8.17578 4.14786 8.58307 3.87696 9.03114 3.69269C9.47922 3.50843 9.95926 3.41443 10.4437 3.41607H10.625C11.5843 3.47926 12.4827 3.90848 13.1346 4.61507C13.7866 5.32166 14.1422 6.25165 14.1281 7.21295V11.5254C14.1281 11.7645 14.206 11.9971 14.35 12.1879L15.5187 13.7254L15.55 13.7598C15.6128 13.8262 15.6544 13.9099 15.6695 14.0001C15.6845 14.0903 15.6723 14.1829 15.6344 14.2661L15.6281 14.2504ZM12.35 16.6911C12.1155 16.954 11.828 17.1644 11.5065 17.3084C11.185 17.4524 10.8367 17.5269 10.4844 17.5269C10.1321 17.5269 9.78372 17.4524 9.46221 17.3084C9.14069 17.1644 8.85325 16.954 8.61874 16.6911C8.54372 16.5976 8.50737 16.4789 8.51716 16.3594C8.52695 16.24 8.58214 16.1288 8.67138 16.0488C8.76061 15.9687 8.87712 15.9259 8.99694 15.9291C9.11677 15.9324 9.2308 15.9814 9.31561 16.0661C9.4622 16.2308 9.64198 16.3626 9.84315 16.4529C10.0443 16.5431 10.2623 16.5898 10.4828 16.5898C10.7033 16.5898 10.9213 16.5431 11.1224 16.4529C11.3236 16.3626 11.5034 16.2308 11.65 16.0661C11.7348 15.9814 11.8488 15.9324 11.9687 15.9291C12.0885 15.9259 12.205 15.9687 12.2942 16.0488C12.3835 16.1288 12.4386 16.24 12.4484 16.3594C12.4582 16.4789 12.4219 16.5976 12.3469 16.6911H12.35Z" fill="#3538CD"/>
</svg>
