<svg width="40" height="40" viewBox="0 0 40 40" fill="none" xmlns="http://www.w3.org/2000/svg">
<path d="M17.169 22.8246L33.5042 6.49541M17.6333 23.5589L21.3374 30.967C22.2325 32.7572 22.68 33.6523 23.2439 33.8924C23.7332 34.1007 24.2925 34.063 24.7494 33.7909C25.2759 33.4774 25.5993 32.5303 26.2461 30.6361L33.2447 10.1403C33.8082 8.48986 34.09 7.66464 33.8972 7.11875C33.7294 6.64384 33.3558 6.27029 32.8809 6.1025C32.335 5.90963 31.5098 6.19141 29.8594 6.75497L9.36353 13.7535C7.46938 14.4003 6.5223 14.7237 6.20878 15.2502C5.9367 15.7072 5.899 16.2665 6.1073 16.7558C6.34734 17.3196 7.24245 17.7672 9.03268 18.6623L16.4408 22.3663C16.7357 22.5138 16.8832 22.5876 17.0111 22.6861C17.1245 22.7735 17.2261 22.8752 17.3136 22.9886C17.4121 23.1164 17.4858 23.2639 17.6333 23.5589Z" stroke="#101828" stroke-width="2" stroke-linecap="round" stroke-linejoin="round"/>
</svg>
