<svg width="21" height="20" viewBox="0 0 21 20" fill="none" xmlns="http://www.w3.org/2000/svg">
<path d="M15.5 13.4335C14.8667 13.4335 14.3 13.6835 13.8667 14.0752L7.925 10.6169C7.96667 10.4252 8 10.2335 8 10.0335C8 9.83353 7.96667 9.64186 7.925 9.45019L13.8 6.0252C14.25 6.44186 14.8417 6.70019 15.5 6.70019C16.8833 6.70019 18 5.58353 18 4.2002C18 2.81686 16.8833 1.7002 15.5 1.7002C14.1167 1.7002 13 2.81686 13 4.2002C13 4.4002 13.0333 4.59186 13.075 4.78353L7.2 8.20853C6.75 7.79186 6.15833 7.53353 5.5 7.53353C4.11667 7.53353 3 8.65019 3 10.0335C3 11.4169 4.11667 12.5335 5.5 12.5335C6.15833 12.5335 6.75 12.2752 7.2 11.8585L13.1333 15.3252C13.0917 15.5002 13.0667 15.6835 13.0667 15.8669C13.0667 17.2085 14.1583 18.3002 15.5 18.3002C16.8417 18.3002 17.9333 17.2085 17.9333 15.8669C17.9333 14.5252 16.8417 13.4335 15.5 13.4335ZM15.5 3.36686C15.9583 3.36686 16.3333 3.74186 16.3333 4.2002C16.3333 4.65853 15.9583 5.03353 15.5 5.03353C15.0417 5.03353 14.6667 4.65853 14.6667 4.2002C14.6667 3.74186 15.0417 3.36686 15.5 3.36686ZM5.5 10.8669C5.04167 10.8669 4.66667 10.4919 4.66667 10.0335C4.66667 9.57519 5.04167 9.20019 5.5 9.20019C5.95833 9.20019 6.33333 9.57519 6.33333 10.0335C6.33333 10.4919 5.95833 10.8669 5.5 10.8669ZM15.5 16.7169C15.0417 16.7169 14.6667 16.3419 14.6667 15.8835C14.6667 15.4252 15.0417 15.0502 15.5 15.0502C15.9583 15.0502 16.3333 15.4252 16.3333 15.8835C16.3333 16.3419 15.9583 16.7169 15.5 16.7169Z" fill="#3538CD"/>
</svg>
