<svg width="20" height="20" viewBox="0 0 20 20" fill="none" xmlns="http://www.w3.org/2000/svg">
<path d="M10 7.49997V9.99997M10 12.5H10.0084M16.6667 9.99997C16.6667 13.7176 12.1167 16.4114 10.5346 17.2358C10.3634 17.325 10.2779 17.3695 10.1592 17.3926C10.0667 17.4106 9.93337 17.4106 9.84091 17.3926C9.72222 17.3695 9.63665 17.325 9.46552 17.2358C7.88334 16.4114 3.33337 13.7176 3.33337 9.99997V6.84797C3.33337 6.18171 3.33337 5.84858 3.44234 5.56223C3.5386 5.30926 3.69503 5.08354 3.89809 4.90458C4.12795 4.70201 4.43987 4.58504 5.06371 4.3511L9.53188 2.67554C9.70512 2.61057 9.79175 2.57808 9.88086 2.56521C9.9599 2.55379 10.0402 2.55379 10.1192 2.56521C10.2083 2.57808 10.295 2.61057 10.4682 2.67554L14.9364 4.3511C15.5602 4.58504 15.8721 4.70201 16.102 4.90458C16.3051 5.08354 16.4615 5.30926 16.5577 5.56223C16.6667 5.84858 16.6667 6.18171 16.6667 6.84797V9.99997Z" stroke="#3538CD" stroke-width="2" stroke-linecap="round" stroke-linejoin="round"/>
</svg>
