<svg width="24" height="24" viewBox="0 0 24 24" fill="none" xmlns="http://www.w3.org/2000/svg">
<path opacity="0.01" d="M0 0H24V24H0" fill="white"/>
<path d="M8.07994 19.9998C11.0673 20.0998 13.9682 18.9874 16.1228 16.9156C18.2775 14.8439 19.5027 11.9888 19.5199 8.9998C20.1976 8.16121 20.7008 7.19563 20.9999 6.1598C21.0456 5.99263 20.9888 5.81425 20.855 5.70417C20.7212 5.59408 20.5352 5.5728 20.3799 5.6498C19.653 5.99973 18.7838 5.84682 18.2199 5.2698C17.5107 4.49313 16.5172 4.03676 15.4659 4.00474C14.4146 3.97271 13.3951 4.36775 12.6399 5.0998C11.5989 6.108 11.1625 7.58807 11.4899 8.9998C8.13994 9.1998 5.83994 7.6098 3.99994 5.4298C3.88699 5.30189 3.70909 5.25287 3.54657 5.30488C3.38404 5.35689 3.26765 5.50008 3.24994 5.6698C2.53206 9.65197 4.36681 13.6605 7.84994 15.7198C6.70958 17.0276 5.10815 17.8445 3.37994 17.9998C3.19012 18.0313 3.04132 18.18 3.00969 18.3698C2.97805 18.5596 3.07059 18.7485 3.23994 18.8398C4.74346 19.5912 6.39917 19.988 8.07994 19.9998Z" fill="white"/>
</svg>
