<svg width="20" height="20" viewBox="0 0 20 20" fill="none" xmlns="http://www.w3.org/2000/svg">
<rect width="20" height="20" fill="white"/>
<path d="M2.5 6.66634V13.9997C2.5 14.9331 2.5 15.3998 2.68166 15.7563C2.84144 16.0699 3.09641 16.3249 3.41002 16.4847C3.76654 16.6663 4.23325 16.6663 5.16667 16.6663H14.8333C15.7668 16.6663 16.2335 16.6663 16.59 16.4847C16.9036 16.3249 17.1586 16.0699 17.3183 15.7563C17.5 15.3998 17.5 14.9331 17.5 13.9997V8.91634C17.5 8.37377 17.5 8.10248 17.4374 7.88061C17.28 7.3225 16.8438 6.88632 16.2857 6.72892C16.0639 6.66634 15.7926 6.66634 15.25 6.66634M2.5 6.66634V5.99967C2.5 5.06625 2.5 4.59954 2.68166 4.24302C2.84144 3.92942 3.09641 3.67445 3.41002 3.51466C3.76654 3.33301 4.23325 3.33301 5.16667 3.33301H12.5833C13.5168 3.33301 13.9835 3.33301 14.34 3.51466C14.6536 3.67445 14.9086 3.92942 15.0683 4.24302C15.25 4.59954 15.25 5.06625 15.25 5.99967V6.66634M2.5 6.66634H15.25M8.33333 13.333V9.99967M10 11.6668L6.66667 11.6663M17.5 9.99967H15.8333C14.9129 9.99967 14.1667 10.7459 14.1667 11.6663C14.1667 12.5868 14.9129 13.333 15.8333 13.333H17.5V9.99967Z" stroke="#667085" stroke-width="2" stroke-linecap="round" stroke-linejoin="round"/>
</svg>
