<svg width="40" height="40" viewBox="0 0 40 40" fill="none" xmlns="http://www.w3.org/2000/svg">
<path d="M5 13.3337V28.0003C5 29.8672 5 30.8006 5.36331 31.5136C5.68289 32.1408 6.19282 32.6508 6.82003 32.9703C7.53307 33.3337 8.46649 33.3337 10.3333 33.3337H29.6667C31.5335 33.3337 32.4669 33.3337 33.18 32.9703C33.8072 32.6508 34.3171 32.1408 34.6367 31.5136C35 30.8006 35 29.8672 35 28.0003V17.8337C35 16.7485 35 16.2059 34.8748 15.7622C34.56 14.646 33.6877 13.7736 32.5715 13.4588C32.1277 13.3337 31.5851 13.3337 30.5 13.3337M5 13.3337V12.0003C5 10.1335 5 9.20006 5.36331 8.48702C5.68289 7.85982 6.19282 7.34988 6.82003 7.0303C7.53307 6.66699 8.46649 6.66699 10.3333 6.66699H25.1667C27.0335 6.66699 27.9669 6.66699 28.68 7.0303C29.3072 7.34988 29.8171 7.85982 30.1367 8.48702C30.5 9.20006 30.5 10.1335 30.5 12.0003V13.3337M5 13.3337H30.5M16.6667 26.667V20.0003M20 23.3346L13.3333 23.3337M35 20.0003H31.6667C29.8257 20.0003 28.3333 21.4927 28.3333 23.3337C28.3333 25.1746 29.8257 26.667 31.6667 26.667H35V20.0003Z" stroke="#E0EAFF" stroke-width="2" stroke-linecap="round" stroke-linejoin="round"/>
</svg>
