<svg width="20" height="20" viewBox="0 0 20 20" fill="none" xmlns="http://www.w3.org/2000/svg">
<g clip-path="url(#clip0_8083_648)">
<path fill-rule="evenodd" clip-rule="evenodd" d="M9.99999 9.99998C7.78299 9.99998 5.98099 8.20599 5.98099 5.99998C5.98099 3.79398 7.78299 1.99998 9.99999 1.99998C12.217 1.99998 14.019 3.79398 14.019 5.99998C14.019 8.20599 12.217 9.99998 9.99999 9.99998ZM13.776 10.673C14.6022 10.015 15.2394 9.14995 15.6227 8.16576C16.006 7.18156 16.1217 6.11336 15.958 5.06993C15.561 2.44693 13.369 0.347977 10.722 0.0419769C7.06999 -0.381023 3.97199 2.44898 3.97199 5.99998C3.97199 7.88998 4.85199 9.57396 6.22399 10.673C2.85199 11.934 0.389988 14.895 0.00398819 18.891C-0.00950785 19.0311 0.00639221 19.1726 0.0506648 19.3063C0.0949375 19.4399 0.166612 19.5628 0.261106 19.6672C0.3556 19.7716 0.470833 19.855 0.59944 19.9123C0.728046 19.9696 0.867198 19.9995 1.00799 20C1.25479 20.002 1.49342 19.9118 1.67711 19.7469C1.86081 19.5821 1.97632 19.3546 2.00099 19.109C2.40399 14.646 5.83699 12 9.99999 12C14.163 12 17.596 14.646 17.999 19.109C18.0237 19.3546 18.1392 19.5821 18.3229 19.7469C18.5066 19.9118 18.7452 20.002 18.992 20C19.588 20 20.052 19.482 19.995 18.891C19.61 14.895 17.148 11.934 13.775 10.673" fill="#98A2B3"/>
</g>
<defs>
<clipPath id="clip0_8083_648">
<rect width="20" height="20" fill="white"/>
</clipPath>
</defs>
</svg>
