<svg width="73" height="72" viewBox="0 0 73 72" fill="none" xmlns="http://www.w3.org/2000/svg">
<g clip-path="url(#clip0_4500_892)">
<circle cx="36.5" cy="36" r="36" fill="#3538CD"/>
<path d="M48.8542 24C48.0238 24.7329 47.5 25.8053 47.5 27C47.5 29.2091 49.2909 31 51.5 31C51.8453 31 53.5 31 54.4999 30M24.5 48C26.0621 46.4379 26.0621 43.5621 24.5 42C22.9379 40.4379 20.0621 40.4379 18.5 42M24.5 24C26.0621 25.5621 26.0621 28.4379 24.5 30C22.9379 31.5621 20.0621 31.5621 18.5 30M48.5 48C46.9379 46.4379 46.9379 43.5621 48.5 42C50.0621 40.4379 52.9379 40.4379 54.5 42M24.9 48H48.1C50.3402 48 51.4603 48 52.316 47.564C53.0686 47.1805 53.6805 46.5686 54.064 45.816C54.5 44.9603 54.5 43.8402 54.5 41.6V30.4C54.5 28.1598 54.5 27.0397 54.064 26.184C53.6805 25.4314 53.0686 24.8195 52.316 24.436C51.4603 24 50.3402 24 48.1 24H24.9C22.6598 24 21.5397 24 20.684 24.436C19.9314 24.8195 19.3195 25.4314 18.936 26.184C18.5 27.0397 18.5 28.1598 18.5 30.4V41.6C18.5 43.8402 18.5 44.9603 18.936 45.816C19.3195 46.5686 19.9314 47.1805 20.684 47.564C21.5397 48 22.6598 48 24.9 48ZM40.5 36C40.5 38.2091 38.7091 40 36.5 40C34.2909 40 32.5 38.2091 32.5 36C32.5 33.7909 34.2909 32 36.5 32C38.7091 32 40.5 33.7909 40.5 36Z" stroke="white" stroke-width="3" stroke-linecap="round" stroke-linejoin="round"/>
</g>
<defs>
<clipPath id="clip0_4500_892">
<rect width="72" height="72" fill="white" transform="translate(0.5)"/>
</clipPath>
</defs>
</svg>
