<svg width="20" height="20" viewBox="0 0 20 20" fill="none" xmlns="http://www.w3.org/2000/svg">
<path d="M4.26354 10.6056L6.79571 7.5722C7.05237 7.2422 7.18071 7.0772 7.24796 6.89215C7.30747 6.7284 7.33209 6.55403 7.32024 6.38021C7.30685 6.18377 7.22922 5.98969 7.07396 5.60153L6.48171 4.12092C6.25194 3.54649 6.13706 3.25927 5.93887 3.07101C5.76423 2.90513 5.54538 2.79323 5.30865 2.74878C5.04 2.69833 4.73989 2.77336 4.13969 2.92341L2.50024 3.33333C2.50024 11.6667 8.33332 17.5 16.6669 17.5L17.0766 15.8603C17.2266 15.2601 17.3017 14.96 17.2512 14.6914C17.2068 14.4546 17.0949 14.2358 16.929 14.0611C16.7407 13.863 16.4535 13.7481 15.8791 13.5183L14.5578 12.9898C14.115 12.8127 13.8936 12.7241 13.6728 12.7173C13.4777 12.7113 13.2839 12.7511 13.1069 12.8335C12.9067 12.9267 12.7381 13.0953 12.4008 13.4325L9.82886 15.964" stroke="#98A2B3" stroke-width="2" stroke-linecap="round" stroke-linejoin="round"/>
</svg>
